<?xml version="1.0" encoding="UTF-8" standalone="no"?>
<!DOCTYPE svg PUBLIC "-//W3C//DTD SVG 1.1//EN"
 "http://www.w3.org/Graphics/SVG/1.1/DTD/svg11.dtd">
<!-- Generated by graphviz version 2.43.0 (0)
 -->
<!-- Title: controllers_diagram Pages: 1 -->
<svg width="3580pt" height="192pt"
 viewBox="0.00 0.00 3579.50 192.00" xmlns="http://www.w3.org/2000/svg" xmlns:xlink="http://www.w3.org/1999/xlink">
<g id="graph0" class="graph" transform="scale(1 1) rotate(0) translate(4 188)">
<title>controllers_diagram</title>
<polygon fill="transparent" stroke="transparent" points="-4,4 -4,-188 3575.5,-188 3575.5,4 -4,4"/>
<!-- ApplicationController -->
<g id="node1" class="node">
<title>ApplicationController</title>
<path fill="none" stroke="black" d="M12,-45C12,-45 158,-45 158,-45 164,-45 170,-51 170,-57 170,-57 170,-127 170,-127 170,-133 164,-139 158,-139 158,-139 12,-139 12,-139 6,-139 0,-133 0,-127 0,-127 0,-57 0,-57 0,-51 6,-45 12,-45"/>
<text text-anchor="middle" x="85" y="-123.8" font-family="Times,serif" font-size="14.00">ApplicationController</text>
<polyline fill="none" stroke="black" points="0,-116 170,-116 "/>
<polyline fill="none" stroke="black" points="0,-92 170,-92 "/>
<polyline fill="none" stroke="black" points="0,-68 170,-68 "/>
<text text-anchor="start" x="8" y="-52.8" font-family="Times,serif" font-size="14.00">user_not_authorized</text>
</g>
<!-- BedTypesController -->
<g id="node2" class="node">
<title>BedTypesController</title>
<path fill="none" stroke="black" d="M200.5,-8C200.5,-8 335.5,-8 335.5,-8 341.5,-8 347.5,-14 347.5,-20 347.5,-20 347.5,-164 347.5,-164 347.5,-170 341.5,-176 335.5,-176 335.5,-176 200.5,-176 200.5,-176 194.5,-176 188.5,-170 188.5,-164 188.5,-164 188.5,-20 188.5,-20 188.5,-14 194.5,-8 200.5,-8"/>
<text text-anchor="middle" x="268" y="-160.8" font-family="Times,serif" font-size="14.00">BedTypesController</text>
<polyline fill="none" stroke="black" points="188.5,-153 347.5,-153 "/>
<text text-anchor="start" x="196.5" y="-137.8" font-family="Times,serif" font-size="14.00">create</text>
<text text-anchor="start" x="196.5" y="-122.8" font-family="Times,serif" font-size="14.00">destroy</text>
<text text-anchor="start" x="196.5" y="-107.8" font-family="Times,serif" font-size="14.00">index</text>
<text text-anchor="start" x="196.5" y="-92.8" font-family="Times,serif" font-size="14.00">show</text>
<text text-anchor="start" x="196.5" y="-77.8" font-family="Times,serif" font-size="14.00">update</text>
<polyline fill="none" stroke="black" points="188.5,-70 347.5,-70 "/>
<polyline fill="none" stroke="black" points="188.5,-46 347.5,-46 "/>
<text text-anchor="start" x="196.5" y="-30.8" font-family="Times,serif" font-size="14.00">bed_type_params</text>
<text text-anchor="start" x="196.5" y="-15.8" font-family="Times,serif" font-size="14.00">set_bed_type</text>
</g>
<!-- BedsController -->
<g id="node3" class="node">
<title>BedsController</title>
<path fill="none" stroke="black" d="M377.5,-8C377.5,-8 478.5,-8 478.5,-8 484.5,-8 490.5,-14 490.5,-20 490.5,-20 490.5,-164 490.5,-164 490.5,-170 484.5,-176 478.5,-176 478.5,-176 377.5,-176 377.5,-176 371.5,-176 365.5,-170 365.5,-164 365.5,-164 365.5,-20 365.5,-20 365.5,-14 371.5,-8 377.5,-8"/>
<text text-anchor="middle" x="428" y="-160.8" font-family="Times,serif" font-size="14.00">BedsController</text>
<polyline fill="none" stroke="black" points="365.5,-153 490.5,-153 "/>
<text text-anchor="start" x="373.5" y="-137.8" font-family="Times,serif" font-size="14.00">create</text>
<text text-anchor="start" x="373.5" y="-122.8" font-family="Times,serif" font-size="14.00">destroy</text>
<text text-anchor="start" x="373.5" y="-107.8" font-family="Times,serif" font-size="14.00">index</text>
<text text-anchor="start" x="373.5" y="-92.8" font-family="Times,serif" font-size="14.00">show</text>
<text text-anchor="start" x="373.5" y="-77.8" font-family="Times,serif" font-size="14.00">update</text>
<polyline fill="none" stroke="black" points="365.5,-70 490.5,-70 "/>
<polyline fill="none" stroke="black" points="365.5,-46 490.5,-46 "/>
<text text-anchor="start" x="373.5" y="-30.8" font-family="Times,serif" font-size="14.00">bed_params</text>
<text text-anchor="start" x="373.5" y="-15.8" font-family="Times,serif" font-size="14.00">set_bed</text>
</g>
<!-- CitiesController -->
<g id="node4" class="node">
<title>CitiesController</title>
<path fill="none" stroke="black" d="M520.5,-8C520.5,-8 627.5,-8 627.5,-8 633.5,-8 639.5,-14 639.5,-20 639.5,-20 639.5,-164 639.5,-164 639.5,-170 633.5,-176 627.5,-176 627.5,-176 520.5,-176 520.5,-176 514.5,-176 508.5,-170 508.5,-164 508.5,-164 508.5,-20 508.5,-20 508.5,-14 514.5,-8 520.5,-8"/>
<text text-anchor="middle" x="574" y="-160.8" font-family="Times,serif" font-size="14.00">CitiesController</text>
<polyline fill="none" stroke="black" points="508.5,-153 639.5,-153 "/>
<text text-anchor="start" x="516.5" y="-137.8" font-family="Times,serif" font-size="14.00">create</text>
<text text-anchor="start" x="516.5" y="-122.8" font-family="Times,serif" font-size="14.00">destroy</text>
<text text-anchor="start" x="516.5" y="-107.8" font-family="Times,serif" font-size="14.00">index</text>
<text text-anchor="start" x="516.5" y="-92.8" font-family="Times,serif" font-size="14.00">show</text>
<text text-anchor="start" x="516.5" y="-77.8" font-family="Times,serif" font-size="14.00">update</text>
<polyline fill="none" stroke="black" points="508.5,-70 639.5,-70 "/>
<polyline fill="none" stroke="black" points="508.5,-46 639.5,-46 "/>
<text text-anchor="start" x="516.5" y="-30.8" font-family="Times,serif" font-size="14.00">city_params</text>
<text text-anchor="start" x="516.5" y="-15.8" font-family="Times,serif" font-size="14.00">set_city</text>
</g>
<!-- CompaniesController -->
<g id="node5" class="node">
<title>CompaniesController</title>
<path fill="none" stroke="black" d="M670,-8C670,-8 814,-8 814,-8 820,-8 826,-14 826,-20 826,-20 826,-164 826,-164 826,-170 820,-176 814,-176 814,-176 670,-176 670,-176 664,-176 658,-170 658,-164 658,-164 658,-20 658,-20 658,-14 664,-8 670,-8"/>
<text text-anchor="middle" x="742" y="-160.8" font-family="Times,serif" font-size="14.00">CompaniesController</text>
<polyline fill="none" stroke="black" points="658,-153 826,-153 "/>
<text text-anchor="start" x="666" y="-137.8" font-family="Times,serif" font-size="14.00">create</text>
<text text-anchor="start" x="666" y="-122.8" font-family="Times,serif" font-size="14.00">destroy</text>
<text text-anchor="start" x="666" y="-107.8" font-family="Times,serif" font-size="14.00">index</text>
<text text-anchor="start" x="666" y="-92.8" font-family="Times,serif" font-size="14.00">show</text>
<text text-anchor="start" x="666" y="-77.8" font-family="Times,serif" font-size="14.00">update</text>
<polyline fill="none" stroke="black" points="658,-70 826,-70 "/>
<polyline fill="none" stroke="black" points="658,-46 826,-46 "/>
<text text-anchor="start" x="666" y="-30.8" font-family="Times,serif" font-size="14.00">company_params</text>
<text text-anchor="start" x="666" y="-15.8" font-family="Times,serif" font-size="14.00">set_company</text>
</g>
<!-- CompanyTypesController -->
<g id="node6" class="node">
<title>CompanyTypesController</title>
<path fill="none" stroke="black" d="M856,-8C856,-8 1030,-8 1030,-8 1036,-8 1042,-14 1042,-20 1042,-20 1042,-164 1042,-164 1042,-170 1036,-176 1030,-176 1030,-176 856,-176 856,-176 850,-176 844,-170 844,-164 844,-164 844,-20 844,-20 844,-14 850,-8 856,-8"/>
<text text-anchor="middle" x="943" y="-160.8" font-family="Times,serif" font-size="14.00">CompanyTypesController</text>
<polyline fill="none" stroke="black" points="844,-153 1042,-153 "/>
<text text-anchor="start" x="852" y="-137.8" font-family="Times,serif" font-size="14.00">create</text>
<text text-anchor="start" x="852" y="-122.8" font-family="Times,serif" font-size="14.00">destroy</text>
<text text-anchor="start" x="852" y="-107.8" font-family="Times,serif" font-size="14.00">index</text>
<text text-anchor="start" x="852" y="-92.8" font-family="Times,serif" font-size="14.00">show</text>
<text text-anchor="start" x="852" y="-77.8" font-family="Times,serif" font-size="14.00">update</text>
<polyline fill="none" stroke="black" points="844,-70 1042,-70 "/>
<polyline fill="none" stroke="black" points="844,-46 1042,-46 "/>
<text text-anchor="start" x="852" y="-30.8" font-family="Times,serif" font-size="14.00">company_type_params</text>
<text text-anchor="start" x="852" y="-15.8" font-family="Times,serif" font-size="14.00">set_company_type</text>
</g>
<!-- ConsultationTypesController -->
<g id="node7" class="node">
<title>ConsultationTypesController</title>
<path fill="none" stroke="black" d="M1072,-8C1072,-8 1270,-8 1270,-8 1276,-8 1282,-14 1282,-20 1282,-20 1282,-164 1282,-164 1282,-170 1276,-176 1270,-176 1270,-176 1072,-176 1072,-176 1066,-176 1060,-170 1060,-164 1060,-164 1060,-20 1060,-20 1060,-14 1066,-8 1072,-8"/>
<text text-anchor="middle" x="1171" y="-160.8" font-family="Times,serif" font-size="14.00">ConsultationTypesController</text>
<polyline fill="none" stroke="black" points="1060,-153 1282,-153 "/>
<text text-anchor="start" x="1068" y="-137.8" font-family="Times,serif" font-size="14.00">create</text>
<text text-anchor="start" x="1068" y="-122.8" font-family="Times,serif" font-size="14.00">destroy</text>
<text text-anchor="start" x="1068" y="-107.8" font-family="Times,serif" font-size="14.00">index</text>
<text text-anchor="start" x="1068" y="-92.8" font-family="Times,serif" font-size="14.00">show</text>
<text text-anchor="start" x="1068" y="-77.8" font-family="Times,serif" font-size="14.00">update</text>
<polyline fill="none" stroke="black" points="1060,-70 1282,-70 "/>
<polyline fill="none" stroke="black" points="1060,-46 1282,-46 "/>
<text text-anchor="start" x="1068" y="-30.8" font-family="Times,serif" font-size="14.00">consultation_type_params</text>
<text text-anchor="start" x="1068" y="-15.8" font-family="Times,serif" font-size="14.00">set_consultation_type</text>
</g>
<!-- ConsultationsController -->
<g id="node8" class="node">
<title>ConsultationsController</title>
<path fill="none" stroke="black" d="M1312,-8C1312,-8 1476,-8 1476,-8 1482,-8 1488,-14 1488,-20 1488,-20 1488,-164 1488,-164 1488,-170 1482,-176 1476,-176 1476,-176 1312,-176 1312,-176 1306,-176 1300,-170 1300,-164 1300,-164 1300,-20 1300,-20 1300,-14 1306,-8 1312,-8"/>
<text text-anchor="middle" x="1394" y="-160.8" font-family="Times,serif" font-size="14.00">ConsultationsController</text>
<polyline fill="none" stroke="black" points="1300,-153 1488,-153 "/>
<text text-anchor="start" x="1308" y="-137.8" font-family="Times,serif" font-size="14.00">create</text>
<text text-anchor="start" x="1308" y="-122.8" font-family="Times,serif" font-size="14.00">destroy</text>
<text text-anchor="start" x="1308" y="-107.8" font-family="Times,serif" font-size="14.00">index</text>
<text text-anchor="start" x="1308" y="-92.8" font-family="Times,serif" font-size="14.00">show</text>
<text text-anchor="start" x="1308" y="-77.8" font-family="Times,serif" font-size="14.00">update</text>
<polyline fill="none" stroke="black" points="1300,-70 1488,-70 "/>
<polyline fill="none" stroke="black" points="1300,-46 1488,-46 "/>
<text text-anchor="start" x="1308" y="-30.8" font-family="Times,serif" font-size="14.00">consultation_params</text>
<text text-anchor="start" x="1308" y="-15.8" font-family="Times,serif" font-size="14.00">set_consultation</text>
</g>
<!-- ExamTypesController -->
<g id="node9" class="node">
<title>ExamTypesController</title>
<path fill="none" stroke="black" d="M1518,-8C1518,-8 1666,-8 1666,-8 1672,-8 1678,-14 1678,-20 1678,-20 1678,-164 1678,-164 1678,-170 1672,-176 1666,-176 1666,-176 1518,-176 1518,-176 1512,-176 1506,-170 1506,-164 1506,-164 1506,-20 1506,-20 1506,-14 1512,-8 1518,-8"/>
<text text-anchor="middle" x="1592" y="-160.8" font-family="Times,serif" font-size="14.00">ExamTypesController</text>
<polyline fill="none" stroke="black" points="1506,-153 1678,-153 "/>
<text text-anchor="start" x="1514" y="-137.8" font-family="Times,serif" font-size="14.00">create</text>
<text text-anchor="start" x="1514" y="-122.8" font-family="Times,serif" font-size="14.00">destroy</text>
<text text-anchor="start" x="1514" y="-107.8" font-family="Times,serif" font-size="14.00">index</text>
<text text-anchor="start" x="1514" y="-92.8" font-family="Times,serif" font-size="14.00">show</text>
<text text-anchor="start" x="1514" y="-77.8" font-family="Times,serif" font-size="14.00">update</text>
<polyline fill="none" stroke="black" points="1506,-70 1678,-70 "/>
<polyline fill="none" stroke="black" points="1506,-46 1678,-46 "/>
<text text-anchor="start" x="1514" y="-30.8" font-family="Times,serif" font-size="14.00">exam_type_params</text>
<text text-anchor="start" x="1514" y="-15.8" font-family="Times,serif" font-size="14.00">set_exam_type</text>
</g>
<!-- ExamsController -->
<g id="node10" class="node">
<title>ExamsController</title>
<path fill="none" stroke="black" d="M1708.5,-8C1708.5,-8 1821.5,-8 1821.5,-8 1827.5,-8 1833.5,-14 1833.5,-20 1833.5,-20 1833.5,-164 1833.5,-164 1833.5,-170 1827.5,-176 1821.5,-176 1821.5,-176 1708.5,-176 1708.5,-176 1702.5,-176 1696.5,-170 1696.5,-164 1696.5,-164 1696.5,-20 1696.5,-20 1696.5,-14 1702.5,-8 1708.5,-8"/>
<text text-anchor="middle" x="1765" y="-160.8" font-family="Times,serif" font-size="14.00">ExamsController</text>
<polyline fill="none" stroke="black" points="1696.5,-153 1833.5,-153 "/>
<text text-anchor="start" x="1704.5" y="-137.8" font-family="Times,serif" font-size="14.00">create</text>
<text text-anchor="start" x="1704.5" y="-122.8" font-family="Times,serif" font-size="14.00">destroy</text>
<text text-anchor="start" x="1704.5" y="-107.8" font-family="Times,serif" font-size="14.00">index</text>
<text text-anchor="start" x="1704.5" y="-92.8" font-family="Times,serif" font-size="14.00">show</text>
<text text-anchor="start" x="1704.5" y="-77.8" font-family="Times,serif" font-size="14.00">update</text>
<polyline fill="none" stroke="black" points="1696.5,-70 1833.5,-70 "/>
<polyline fill="none" stroke="black" points="1696.5,-46 1833.5,-46 "/>
<text text-anchor="start" x="1704.5" y="-30.8" font-family="Times,serif" font-size="14.00">exam_params</text>
<text text-anchor="start" x="1704.5" y="-15.8" font-family="Times,serif" font-size="14.00">set_exam</text>
</g>
<!-- HospitalizationsController -->
<g id="node11" class="node">
<title>HospitalizationsController</title>
<path fill="none" stroke="black" d="M1863.5,-8C1863.5,-8 2044.5,-8 2044.5,-8 2050.5,-8 2056.5,-14 2056.5,-20 2056.5,-20 2056.5,-164 2056.5,-164 2056.5,-170 2050.5,-176 2044.5,-176 2044.5,-176 1863.5,-176 1863.5,-176 1857.5,-176 1851.5,-170 1851.5,-164 1851.5,-164 1851.5,-20 1851.5,-20 1851.5,-14 1857.5,-8 1863.5,-8"/>
<text text-anchor="middle" x="1954" y="-160.8" font-family="Times,serif" font-size="14.00">HospitalizationsController</text>
<polyline fill="none" stroke="black" points="1851.5,-153 2056.5,-153 "/>
<text text-anchor="start" x="1859.5" y="-137.8" font-family="Times,serif" font-size="14.00">create</text>
<text text-anchor="start" x="1859.5" y="-122.8" font-family="Times,serif" font-size="14.00">destroy</text>
<text text-anchor="start" x="1859.5" y="-107.8" font-family="Times,serif" font-size="14.00">index</text>
<text text-anchor="start" x="1859.5" y="-92.8" font-family="Times,serif" font-size="14.00">show</text>
<text text-anchor="start" x="1859.5" y="-77.8" font-family="Times,serif" font-size="14.00">update</text>
<polyline fill="none" stroke="black" points="1851.5,-70 2056.5,-70 "/>
<polyline fill="none" stroke="black" points="1851.5,-46 2056.5,-46 "/>
<text text-anchor="start" x="1859.5" y="-30.8" font-family="Times,serif" font-size="14.00">hospitalization_params</text>
<text text-anchor="start" x="1859.5" y="-15.8" font-family="Times,serif" font-size="14.00">set_hospitalization</text>
</g>
<!-- MedicalRecordsController -->
<g id="node12" class="node">
<title>MedicalRecordsController</title>
<path fill="none" stroke="black" d="M2086.5,-8C2086.5,-8 2265.5,-8 2265.5,-8 2271.5,-8 2277.5,-14 2277.5,-20 2277.5,-20 2277.5,-164 2277.5,-164 2277.5,-170 2271.5,-176 2265.5,-176 2265.5,-176 2086.5,-176 2086.5,-176 2080.5,-176 2074.5,-170 2074.5,-164 2074.5,-164 2074.5,-20 2074.5,-20 2074.5,-14 2080.5,-8 2086.5,-8"/>
<text text-anchor="middle" x="2176" y="-160.8" font-family="Times,serif" font-size="14.00">MedicalRecordsController</text>
<polyline fill="none" stroke="black" points="2074.5,-153 2277.5,-153 "/>
<text text-anchor="start" x="2082.5" y="-137.8" font-family="Times,serif" font-size="14.00">create</text>
<text text-anchor="start" x="2082.5" y="-122.8" font-family="Times,serif" font-size="14.00">destroy</text>
<text text-anchor="start" x="2082.5" y="-107.8" font-family="Times,serif" font-size="14.00">index</text>
<text text-anchor="start" x="2082.5" y="-92.8" font-family="Times,serif" font-size="14.00">show</text>
<text text-anchor="start" x="2082.5" y="-77.8" font-family="Times,serif" font-size="14.00">update</text>
<polyline fill="none" stroke="black" points="2074.5,-70 2277.5,-70 "/>
<polyline fill="none" stroke="black" points="2074.5,-46 2277.5,-46 "/>
<text text-anchor="start" x="2082.5" y="-30.8" font-family="Times,serif" font-size="14.00">medical_record_params</text>
<text text-anchor="start" x="2082.5" y="-15.8" font-family="Times,serif" font-size="14.00">set_medical_record</text>
</g>
<!-- NotificationsController -->
<g id="node13" class="node">
<title>NotificationsController</title>
<path fill="none" stroke="black" d="M2308,-0.5C2308,-0.5 2464,-0.5 2464,-0.5 2470,-0.5 2476,-6.5 2476,-12.5 2476,-12.5 2476,-171.5 2476,-171.5 2476,-177.5 2470,-183.5 2464,-183.5 2464,-183.5 2308,-183.5 2308,-183.5 2302,-183.5 2296,-177.5 2296,-171.5 2296,-171.5 2296,-12.5 2296,-12.5 2296,-6.5 2302,-0.5 2308,-0.5"/>
<text text-anchor="middle" x="2386" y="-168.3" font-family="Times,serif" font-size="14.00">NotificationsController</text>
<polyline fill="none" stroke="black" points="2296,-160.5 2476,-160.5 "/>
<text text-anchor="start" x="2304" y="-145.3" font-family="Times,serif" font-size="14.00">create</text>
<text text-anchor="start" x="2304" y="-130.3" font-family="Times,serif" font-size="14.00">destroy</text>
<text text-anchor="start" x="2304" y="-115.3" font-family="Times,serif" font-size="14.00">index</text>
<text text-anchor="start" x="2304" y="-100.3" font-family="Times,serif" font-size="14.00">mark_as_read</text>
<text text-anchor="start" x="2304" y="-85.3" font-family="Times,serif" font-size="14.00">show</text>
<text text-anchor="start" x="2304" y="-70.3" font-family="Times,serif" font-size="14.00">update</text>
<polyline fill="none" stroke="black" points="2296,-62.5 2476,-62.5 "/>
<polyline fill="none" stroke="black" points="2296,-38.5 2476,-38.5 "/>
<text text-anchor="start" x="2304" y="-23.3" font-family="Times,serif" font-size="14.00">notification_params</text>
<text text-anchor="start" x="2304" y="-8.3" font-family="Times,serif" font-size="14.00">set_notification</text>
</g>
<!-- PasswordsController -->
<g id="node14" class="node">
<title>PasswordsController</title>
<path fill="none" stroke="black" d="M2506.5,-15.5C2506.5,-15.5 2647.5,-15.5 2647.5,-15.5 2653.5,-15.5 2659.5,-21.5 2659.5,-27.5 2659.5,-27.5 2659.5,-156.5 2659.5,-156.5 2659.5,-162.5 2653.5,-168.5 2647.5,-168.5 2647.5,-168.5 2506.5,-168.5 2506.5,-168.5 2500.5,-168.5 2494.5,-162.5 2494.5,-156.5 2494.5,-156.5 2494.5,-27.5 2494.5,-27.5 2494.5,-21.5 2500.5,-15.5 2506.5,-15.5"/>
<text text-anchor="middle" x="2577" y="-153.3" font-family="Times,serif" font-size="14.00">PasswordsController</text>
<polyline fill="none" stroke="black" points="2494.5,-145.5 2659.5,-145.5 "/>
<text text-anchor="start" x="2502.5" y="-130.3" font-family="Times,serif" font-size="14.00">create</text>
<text text-anchor="start" x="2502.5" y="-115.3" font-family="Times,serif" font-size="14.00">edit</text>
<text text-anchor="start" x="2502.5" y="-100.3" font-family="Times,serif" font-size="14.00">new</text>
<text text-anchor="start" x="2502.5" y="-85.3" font-family="Times,serif" font-size="14.00">update</text>
<polyline fill="none" stroke="black" points="2494.5,-77.5 2659.5,-77.5 "/>
<polyline fill="none" stroke="black" points="2494.5,-53.5 2659.5,-53.5 "/>
<text text-anchor="start" x="2502.5" y="-38.3" font-family="Times,serif" font-size="14.00">password_params</text>
<text text-anchor="start" x="2502.5" y="-23.3" font-family="Times,serif" font-size="14.00">set_user_by_token</text>
</g>
<!-- PrescriptionsController -->
<g id="node15" class="node">
<title>PrescriptionsController</title>
<path fill="none" stroke="black" d="M2689.5,-8C2689.5,-8 2850.5,-8 2850.5,-8 2856.5,-8 2862.5,-14 2862.5,-20 2862.5,-20 2862.5,-164 2862.5,-164 2862.5,-170 2856.5,-176 2850.5,-176 2850.5,-176 2689.5,-176 2689.5,-176 2683.5,-176 2677.5,-170 2677.5,-164 2677.5,-164 2677.5,-20 2677.5,-20 2677.5,-14 2683.5,-8 2689.5,-8"/>
<text text-anchor="middle" x="2770" y="-160.8" font-family="Times,serif" font-size="14.00">PrescriptionsController</text>
<polyline fill="none" stroke="black" points="2677.5,-153 2862.5,-153 "/>
<text text-anchor="start" x="2685.5" y="-137.8" font-family="Times,serif" font-size="14.00">create</text>
<text text-anchor="start" x="2685.5" y="-122.8" font-family="Times,serif" font-size="14.00">destroy</text>
<text text-anchor="start" x="2685.5" y="-107.8" font-family="Times,serif" font-size="14.00">index</text>
<text text-anchor="start" x="2685.5" y="-92.8" font-family="Times,serif" font-size="14.00">show</text>
<text text-anchor="start" x="2685.5" y="-77.8" font-family="Times,serif" font-size="14.00">update</text>
<polyline fill="none" stroke="black" points="2677.5,-70 2862.5,-70 "/>
<polyline fill="none" stroke="black" points="2677.5,-46 2862.5,-46 "/>
<text text-anchor="start" x="2685.5" y="-30.8" font-family="Times,serif" font-size="14.00">prescription_params</text>
<text text-anchor="start" x="2685.5" y="-15.8" font-family="Times,serif" font-size="14.00">set_prescription</text>
</g>
<!-- RolesController -->
<g id="node16" class="node">
<title>RolesController</title>
<path fill="none" stroke="black" d="M2893,-8C2893,-8 2997,-8 2997,-8 3003,-8 3009,-14 3009,-20 3009,-20 3009,-164 3009,-164 3009,-170 3003,-176 2997,-176 2997,-176 2893,-176 2893,-176 2887,-176 2881,-170 2881,-164 2881,-164 2881,-20 2881,-20 2881,-14 2887,-8 2893,-8"/>
<text text-anchor="middle" x="2945" y="-160.8" font-family="Times,serif" font-size="14.00">RolesController</text>
<polyline fill="none" stroke="black" points="2881,-153 3009,-153 "/>
<text text-anchor="start" x="2889" y="-137.8" font-family="Times,serif" font-size="14.00">create</text>
<text text-anchor="start" x="2889" y="-122.8" font-family="Times,serif" font-size="14.00">destroy</text>
<text text-anchor="start" x="2889" y="-107.8" font-family="Times,serif" font-size="14.00">index</text>
<text text-anchor="start" x="2889" y="-92.8" font-family="Times,serif" font-size="14.00">show</text>
<text text-anchor="start" x="2889" y="-77.8" font-family="Times,serif" font-size="14.00">update</text>
<polyline fill="none" stroke="black" points="2881,-70 3009,-70 "/>
<polyline fill="none" stroke="black" points="2881,-46 3009,-46 "/>
<text text-anchor="start" x="2889" y="-30.8" font-family="Times,serif" font-size="14.00">role_params</text>
<text text-anchor="start" x="2889" y="-15.8" font-family="Times,serif" font-size="14.00">set_role</text>
</g>
<!-- SessionsController -->
<g id="node17" class="node">
<title>SessionsController</title>
<path fill="none" stroke="black" d="M3039,-38C3039,-38 3167,-38 3167,-38 3173,-38 3179,-44 3179,-50 3179,-50 3179,-134 3179,-134 3179,-140 3173,-146 3167,-146 3167,-146 3039,-146 3039,-146 3033,-146 3027,-140 3027,-134 3027,-134 3027,-50 3027,-50 3027,-44 3033,-38 3039,-38"/>
<text text-anchor="middle" x="3103" y="-130.8" font-family="Times,serif" font-size="14.00">SessionsController</text>
<polyline fill="none" stroke="black" points="3027,-123 3179,-123 "/>
<text text-anchor="start" x="3035" y="-107.8" font-family="Times,serif" font-size="14.00">create</text>
<text text-anchor="start" x="3035" y="-92.8" font-family="Times,serif" font-size="14.00">destroy</text>
<polyline fill="none" stroke="black" points="3027,-85 3179,-85 "/>
<polyline fill="none" stroke="black" points="3027,-61 3179,-61 "/>
<text text-anchor="start" x="3035" y="-45.8" font-family="Times,serif" font-size="14.00">user_params</text>
</g>
<!-- StatesController -->
<g id="node18" class="node">
<title>StatesController</title>
<path fill="none" stroke="black" d="M3209.5,-8C3209.5,-8 3320.5,-8 3320.5,-8 3326.5,-8 3332.5,-14 3332.5,-20 3332.5,-20 3332.5,-164 3332.5,-164 3332.5,-170 3326.5,-176 3320.5,-176 3320.5,-176 3209.5,-176 3209.5,-176 3203.5,-176 3197.5,-170 3197.5,-164 3197.5,-164 3197.5,-20 3197.5,-20 3197.5,-14 3203.5,-8 3209.5,-8"/>
<text text-anchor="middle" x="3265" y="-160.8" font-family="Times,serif" font-size="14.00">StatesController</text>
<polyline fill="none" stroke="black" points="3197.5,-153 3332.5,-153 "/>
<text text-anchor="start" x="3205.5" y="-137.8" font-family="Times,serif" font-size="14.00">create</text>
<text text-anchor="start" x="3205.5" y="-122.8" font-family="Times,serif" font-size="14.00">destroy</text>
<text text-anchor="start" x="3205.5" y="-107.8" font-family="Times,serif" font-size="14.00">index</text>
<text text-anchor="start" x="3205.5" y="-92.8" font-family="Times,serif" font-size="14.00">show</text>
<text text-anchor="start" x="3205.5" y="-77.8" font-family="Times,serif" font-size="14.00">update</text>
<polyline fill="none" stroke="black" points="3197.5,-70 3332.5,-70 "/>
<polyline fill="none" stroke="black" points="3197.5,-46 3332.5,-46 "/>
<text text-anchor="start" x="3205.5" y="-30.8" font-family="Times,serif" font-size="14.00">set_state</text>
<text text-anchor="start" x="3205.5" y="-15.8" font-family="Times,serif" font-size="14.00">state_params</text>
</g>
<!-- UsersController -->
<g id="node19" class="node">
<title>UsersController</title>
<path fill="none" stroke="black" d="M3362.5,-0.5C3362.5,-0.5 3559.5,-0.5 3559.5,-0.5 3565.5,-0.5 3571.5,-6.5 3571.5,-12.5 3571.5,-12.5 3571.5,-171.5 3571.5,-171.5 3571.5,-177.5 3565.5,-183.5 3559.5,-183.5 3559.5,-183.5 3362.5,-183.5 3362.5,-183.5 3356.5,-183.5 3350.5,-177.5 3350.5,-171.5 3350.5,-171.5 3350.5,-12.5 3350.5,-12.5 3350.5,-6.5 3356.5,-0.5 3362.5,-0.5"/>
<text text-anchor="middle" x="3461" y="-168.3" font-family="Times,serif" font-size="14.00">UsersController</text>
<polyline fill="none" stroke="black" points="3350.5,-160.5 3571.5,-160.5 "/>
<text text-anchor="start" x="3358.5" y="-145.3" font-family="Times,serif" font-size="14.00">create</text>
<text text-anchor="start" x="3358.5" y="-130.3" font-family="Times,serif" font-size="14.00">destroy</text>
<text text-anchor="start" x="3358.5" y="-115.3" font-family="Times,serif" font-size="14.00">index</text>
<text text-anchor="start" x="3358.5" y="-100.3" font-family="Times,serif" font-size="14.00">show</text>
<text text-anchor="start" x="3358.5" y="-85.3" font-family="Times,serif" font-size="14.00">update</text>
<polyline fill="none" stroke="black" points="3350.5,-77.5 3571.5,-77.5 "/>
<polyline fill="none" stroke="black" points="3350.5,-53.5 3571.5,-53.5 "/>
<text text-anchor="start" x="3358.5" y="-38.3" font-family="Times,serif" font-size="14.00">public_registration_allowed?</text>
<text text-anchor="start" x="3358.5" y="-23.3" font-family="Times,serif" font-size="14.00">set_user</text>
<text text-anchor="start" x="3358.5" y="-8.3" font-family="Times,serif" font-size="14.00">user_params</text>
</g>
</g>
</svg>
