<?xml version="1.0" encoding="UTF-8" standalone="no"?>
<!DOCTYPE svg PUBLIC "-//W3C//DTD SVG 1.1//EN"
 "http://www.w3.org/Graphics/SVG/1.1/DTD/svg11.dtd">
<!-- Generated by graphviz version 2.43.0 (0)
 -->
<!-- Title: controllers_diagram Pages: 1 -->
<svg width="1067pt" height="975pt"
 viewBox="0.00 0.00 1067.00 975.00" xmlns="http://www.w3.org/2000/svg" xmlns:xlink="http://www.w3.org/1999/xlink">
<g id="graph0" class="graph" transform="scale(1 1) rotate(0) translate(4 971)">
<title>controllers_diagram</title>
<polygon fill="transparent" stroke="transparent" points="-4,4 -4,-971 1063,-971 1063,4 -4,4"/>
<!-- _diagram_info -->
<g id="node1" class="node">
<title>_diagram_info</title>
<text text-anchor="start" x="635" y="-253.6" font-family="Times,serif" font-size="13.00">Controllers diagram</text>
<text text-anchor="start" x="635" y="-239.6" font-family="Times,serif" font-size="13.00">Date: Apr 29 2025 &#45; 21:10</text>
<text text-anchor="start" x="635" y="-225.6" font-family="Times,serif" font-size="13.00">Migration version: 20250413183312</text>
<text text-anchor="start" x="635" y="-211.6" font-family="Times,serif" font-size="13.00">Generated by RailRoady 1.6.0</text>
<text text-anchor="start" x="635" y="-197.6" font-family="Times,serif" font-size="13.00">http://railroady.prestonlee.com</text>
</g>
<!-- ApplicationController -->
<g id="node2" class="node">
<title>ApplicationController</title>
<path fill="none" stroke="black" d="M145,-627.5C145,-627.5 291,-627.5 291,-627.5 297,-627.5 303,-633.5 303,-639.5 303,-639.5 303,-709.5 303,-709.5 303,-715.5 297,-721.5 291,-721.5 291,-721.5 145,-721.5 145,-721.5 139,-721.5 133,-715.5 133,-709.5 133,-709.5 133,-639.5 133,-639.5 133,-633.5 139,-627.5 145,-627.5"/>
<text text-anchor="middle" x="218" y="-706.3" font-family="Times,serif" font-size="14.00">ApplicationController</text>
<polyline fill="none" stroke="black" points="133,-698.5 303,-698.5 "/>
<polyline fill="none" stroke="black" points="133,-674.5 303,-674.5 "/>
<polyline fill="none" stroke="black" points="133,-650.5 303,-650.5 "/>
<text text-anchor="start" x="141" y="-635.3" font-family="Times,serif" font-size="14.00">user_not_authorized</text>
</g>
<!-- BedTypesController -->
<g id="node3" class="node">
<title>BedTypesController</title>
<path fill="none" stroke="black" d="M810,-779.5C810,-779.5 945,-779.5 945,-779.5 951,-779.5 957,-785.5 957,-791.5 957,-791.5 957,-935.5 957,-935.5 957,-941.5 951,-947.5 945,-947.5 945,-947.5 810,-947.5 810,-947.5 804,-947.5 798,-941.5 798,-935.5 798,-935.5 798,-791.5 798,-791.5 798,-785.5 804,-779.5 810,-779.5"/>
<text text-anchor="middle" x="877.5" y="-932.3" font-family="Times,serif" font-size="14.00">BedTypesController</text>
<polyline fill="none" stroke="black" points="798,-924.5 957,-924.5 "/>
<text text-anchor="start" x="806" y="-909.3" font-family="Times,serif" font-size="14.00">create</text>
<text text-anchor="start" x="806" y="-894.3" font-family="Times,serif" font-size="14.00">destroy</text>
<text text-anchor="start" x="806" y="-879.3" font-family="Times,serif" font-size="14.00">index</text>
<text text-anchor="start" x="806" y="-864.3" font-family="Times,serif" font-size="14.00">show</text>
<text text-anchor="start" x="806" y="-849.3" font-family="Times,serif" font-size="14.00">update</text>
<polyline fill="none" stroke="black" points="798,-841.5 957,-841.5 "/>
<polyline fill="none" stroke="black" points="798,-817.5 957,-817.5 "/>
<text text-anchor="start" x="806" y="-802.3" font-family="Times,serif" font-size="14.00">bed_type_params</text>
<text text-anchor="start" x="806" y="-787.3" font-family="Times,serif" font-size="14.00">set_bed_type</text>
</g>
<!-- BedsController -->
<g id="node4" class="node">
<title>BedsController</title>
<path fill="none" stroke="black" d="M449,-798.5C449,-798.5 550,-798.5 550,-798.5 556,-798.5 562,-804.5 562,-810.5 562,-810.5 562,-954.5 562,-954.5 562,-960.5 556,-966.5 550,-966.5 550,-966.5 449,-966.5 449,-966.5 443,-966.5 437,-960.5 437,-954.5 437,-954.5 437,-810.5 437,-810.5 437,-804.5 443,-798.5 449,-798.5"/>
<text text-anchor="middle" x="499.5" y="-951.3" font-family="Times,serif" font-size="14.00">BedsController</text>
<polyline fill="none" stroke="black" points="437,-943.5 562,-943.5 "/>
<text text-anchor="start" x="445" y="-928.3" font-family="Times,serif" font-size="14.00">create</text>
<text text-anchor="start" x="445" y="-913.3" font-family="Times,serif" font-size="14.00">destroy</text>
<text text-anchor="start" x="445" y="-898.3" font-family="Times,serif" font-size="14.00">index</text>
<text text-anchor="start" x="445" y="-883.3" font-family="Times,serif" font-size="14.00">show</text>
<text text-anchor="start" x="445" y="-868.3" font-family="Times,serif" font-size="14.00">update</text>
<polyline fill="none" stroke="black" points="437,-860.5 562,-860.5 "/>
<polyline fill="none" stroke="black" points="437,-836.5 562,-836.5 "/>
<text text-anchor="start" x="445" y="-821.3" font-family="Times,serif" font-size="14.00">bed_params</text>
<text text-anchor="start" x="445" y="-806.3" font-family="Times,serif" font-size="14.00">set_bed</text>
</g>
<!-- CitiesController -->
<g id="node5" class="node">
<title>CitiesController</title>
<path fill="none" stroke="black" d="M886,-304.5C886,-304.5 993,-304.5 993,-304.5 999,-304.5 1005,-310.5 1005,-316.5 1005,-316.5 1005,-460.5 1005,-460.5 1005,-466.5 999,-472.5 993,-472.5 993,-472.5 886,-472.5 886,-472.5 880,-472.5 874,-466.5 874,-460.5 874,-460.5 874,-316.5 874,-316.5 874,-310.5 880,-304.5 886,-304.5"/>
<text text-anchor="middle" x="939.5" y="-457.3" font-family="Times,serif" font-size="14.00">CitiesController</text>
<polyline fill="none" stroke="black" points="874,-449.5 1005,-449.5 "/>
<text text-anchor="start" x="882" y="-434.3" font-family="Times,serif" font-size="14.00">create</text>
<text text-anchor="start" x="882" y="-419.3" font-family="Times,serif" font-size="14.00">destroy</text>
<text text-anchor="start" x="882" y="-404.3" font-family="Times,serif" font-size="14.00">index</text>
<text text-anchor="start" x="882" y="-389.3" font-family="Times,serif" font-size="14.00">show</text>
<text text-anchor="start" x="882" y="-374.3" font-family="Times,serif" font-size="14.00">update</text>
<polyline fill="none" stroke="black" points="874,-366.5 1005,-366.5 "/>
<polyline fill="none" stroke="black" points="874,-342.5 1005,-342.5 "/>
<text text-anchor="start" x="882" y="-327.3" font-family="Times,serif" font-size="14.00">city_params</text>
<text text-anchor="start" x="882" y="-312.3" font-family="Times,serif" font-size="14.00">set_city</text>
</g>
<!-- CompaniesController -->
<g id="node6" class="node">
<title>CompaniesController</title>
<path fill="none" stroke="black" d="M601,-779.5C601,-779.5 745,-779.5 745,-779.5 751,-779.5 757,-785.5 757,-791.5 757,-791.5 757,-935.5 757,-935.5 757,-941.5 751,-947.5 745,-947.5 745,-947.5 601,-947.5 601,-947.5 595,-947.5 589,-941.5 589,-935.5 589,-935.5 589,-791.5 589,-791.5 589,-785.5 595,-779.5 601,-779.5"/>
<text text-anchor="middle" x="673" y="-932.3" font-family="Times,serif" font-size="14.00">CompaniesController</text>
<polyline fill="none" stroke="black" points="589,-924.5 757,-924.5 "/>
<text text-anchor="start" x="597" y="-909.3" font-family="Times,serif" font-size="14.00">create</text>
<text text-anchor="start" x="597" y="-894.3" font-family="Times,serif" font-size="14.00">destroy</text>
<text text-anchor="start" x="597" y="-879.3" font-family="Times,serif" font-size="14.00">index</text>
<text text-anchor="start" x="597" y="-864.3" font-family="Times,serif" font-size="14.00">show</text>
<text text-anchor="start" x="597" y="-849.3" font-family="Times,serif" font-size="14.00">update</text>
<polyline fill="none" stroke="black" points="589,-841.5 757,-841.5 "/>
<polyline fill="none" stroke="black" points="589,-817.5 757,-817.5 "/>
<text text-anchor="start" x="597" y="-802.3" font-family="Times,serif" font-size="14.00">company_params</text>
<text text-anchor="start" x="597" y="-787.3" font-family="Times,serif" font-size="14.00">set_company</text>
</g>
<!-- CompanyTypesController -->
<g id="node7" class="node">
<title>CompanyTypesController</title>
<path fill="none" stroke="black" d="M601,-570.5C601,-570.5 775,-570.5 775,-570.5 781,-570.5 787,-576.5 787,-582.5 787,-582.5 787,-726.5 787,-726.5 787,-732.5 781,-738.5 775,-738.5 775,-738.5 601,-738.5 601,-738.5 595,-738.5 589,-732.5 589,-726.5 589,-726.5 589,-582.5 589,-582.5 589,-576.5 595,-570.5 601,-570.5"/>
<text text-anchor="middle" x="688" y="-723.3" font-family="Times,serif" font-size="14.00">CompanyTypesController</text>
<polyline fill="none" stroke="black" points="589,-715.5 787,-715.5 "/>
<text text-anchor="start" x="597" y="-700.3" font-family="Times,serif" font-size="14.00">create</text>
<text text-anchor="start" x="597" y="-685.3" font-family="Times,serif" font-size="14.00">destroy</text>
<text text-anchor="start" x="597" y="-670.3" font-family="Times,serif" font-size="14.00">index</text>
<text text-anchor="start" x="597" y="-655.3" font-family="Times,serif" font-size="14.00">show</text>
<text text-anchor="start" x="597" y="-640.3" font-family="Times,serif" font-size="14.00">update</text>
<polyline fill="none" stroke="black" points="589,-632.5 787,-632.5 "/>
<polyline fill="none" stroke="black" points="589,-608.5 787,-608.5 "/>
<text text-anchor="start" x="597" y="-593.3" font-family="Times,serif" font-size="14.00">company_type_params</text>
<text text-anchor="start" x="597" y="-578.3" font-family="Times,serif" font-size="14.00">set_company_type</text>
</g>
<!-- ConsultationTypesController -->
<g id="node8" class="node">
<title>ConsultationTypesController</title>
<path fill="none" stroke="black" d="M373,-361.5C373,-361.5 571,-361.5 571,-361.5 577,-361.5 583,-367.5 583,-373.5 583,-373.5 583,-517.5 583,-517.5 583,-523.5 577,-529.5 571,-529.5 571,-529.5 373,-529.5 373,-529.5 367,-529.5 361,-523.5 361,-517.5 361,-517.5 361,-373.5 361,-373.5 361,-367.5 367,-361.5 373,-361.5"/>
<text text-anchor="middle" x="472" y="-514.3" font-family="Times,serif" font-size="14.00">ConsultationTypesController</text>
<polyline fill="none" stroke="black" points="361,-506.5 583,-506.5 "/>
<text text-anchor="start" x="369" y="-491.3" font-family="Times,serif" font-size="14.00">create</text>
<text text-anchor="start" x="369" y="-476.3" font-family="Times,serif" font-size="14.00">destroy</text>
<text text-anchor="start" x="369" y="-461.3" font-family="Times,serif" font-size="14.00">index</text>
<text text-anchor="start" x="369" y="-446.3" font-family="Times,serif" font-size="14.00">show</text>
<text text-anchor="start" x="369" y="-431.3" font-family="Times,serif" font-size="14.00">update</text>
<polyline fill="none" stroke="black" points="361,-423.5 583,-423.5 "/>
<polyline fill="none" stroke="black" points="361,-399.5 583,-399.5 "/>
<text text-anchor="start" x="369" y="-384.3" font-family="Times,serif" font-size="14.00">consultation_type_params</text>
<text text-anchor="start" x="369" y="-369.3" font-family="Times,serif" font-size="14.00">set_consultation_type</text>
</g>
<!-- ConsultationsController -->
<g id="node9" class="node">
<title>ConsultationsController</title>
<path fill="none" stroke="black" d="M183,-152.5C183,-152.5 347,-152.5 347,-152.5 353,-152.5 359,-158.5 359,-164.5 359,-164.5 359,-308.5 359,-308.5 359,-314.5 353,-320.5 347,-320.5 347,-320.5 183,-320.5 183,-320.5 177,-320.5 171,-314.5 171,-308.5 171,-308.5 171,-164.5 171,-164.5 171,-158.5 177,-152.5 183,-152.5"/>
<text text-anchor="middle" x="265" y="-305.3" font-family="Times,serif" font-size="14.00">ConsultationsController</text>
<polyline fill="none" stroke="black" points="171,-297.5 359,-297.5 "/>
<text text-anchor="start" x="179" y="-282.3" font-family="Times,serif" font-size="14.00">create</text>
<text text-anchor="start" x="179" y="-267.3" font-family="Times,serif" font-size="14.00">destroy</text>
<text text-anchor="start" x="179" y="-252.3" font-family="Times,serif" font-size="14.00">index</text>
<text text-anchor="start" x="179" y="-237.3" font-family="Times,serif" font-size="14.00">show</text>
<text text-anchor="start" x="179" y="-222.3" font-family="Times,serif" font-size="14.00">update</text>
<polyline fill="none" stroke="black" points="171,-214.5 359,-214.5 "/>
<polyline fill="none" stroke="black" points="171,-190.5 359,-190.5 "/>
<text text-anchor="start" x="179" y="-175.3" font-family="Times,serif" font-size="14.00">consultation_params</text>
<text text-anchor="start" x="179" y="-160.3" font-family="Times,serif" font-size="14.00">set_consultation</text>
</g>
<!-- ExamTypesController -->
<g id="node10" class="node">
<title>ExamTypesController</title>
<path fill="none" stroke="black" d="M829,-513.5C829,-513.5 977,-513.5 977,-513.5 983,-513.5 989,-519.5 989,-525.5 989,-525.5 989,-669.5 989,-669.5 989,-675.5 983,-681.5 977,-681.5 977,-681.5 829,-681.5 829,-681.5 823,-681.5 817,-675.5 817,-669.5 817,-669.5 817,-525.5 817,-525.5 817,-519.5 823,-513.5 829,-513.5"/>
<text text-anchor="middle" x="903" y="-666.3" font-family="Times,serif" font-size="14.00">ExamTypesController</text>
<polyline fill="none" stroke="black" points="817,-658.5 989,-658.5 "/>
<text text-anchor="start" x="825" y="-643.3" font-family="Times,serif" font-size="14.00">create</text>
<text text-anchor="start" x="825" y="-628.3" font-family="Times,serif" font-size="14.00">destroy</text>
<text text-anchor="start" x="825" y="-613.3" font-family="Times,serif" font-size="14.00">index</text>
<text text-anchor="start" x="825" y="-598.3" font-family="Times,serif" font-size="14.00">show</text>
<text text-anchor="start" x="825" y="-583.3" font-family="Times,serif" font-size="14.00">update</text>
<polyline fill="none" stroke="black" points="817,-575.5 989,-575.5 "/>
<polyline fill="none" stroke="black" points="817,-551.5 989,-551.5 "/>
<text text-anchor="start" x="825" y="-536.3" font-family="Times,serif" font-size="14.00">exam_type_params</text>
<text text-anchor="start" x="825" y="-521.3" font-family="Times,serif" font-size="14.00">set_exam_type</text>
</g>
<!-- ExamsController -->
<g id="node11" class="node">
<title>ExamsController</title>
<path fill="none" stroke="black" d="M183,-760.5C183,-760.5 296,-760.5 296,-760.5 302,-760.5 308,-766.5 308,-772.5 308,-772.5 308,-916.5 308,-916.5 308,-922.5 302,-928.5 296,-928.5 296,-928.5 183,-928.5 183,-928.5 177,-928.5 171,-922.5 171,-916.5 171,-916.5 171,-772.5 171,-772.5 171,-766.5 177,-760.5 183,-760.5"/>
<text text-anchor="middle" x="239.5" y="-913.3" font-family="Times,serif" font-size="14.00">ExamsController</text>
<polyline fill="none" stroke="black" points="171,-905.5 308,-905.5 "/>
<text text-anchor="start" x="179" y="-890.3" font-family="Times,serif" font-size="14.00">create</text>
<text text-anchor="start" x="179" y="-875.3" font-family="Times,serif" font-size="14.00">destroy</text>
<text text-anchor="start" x="179" y="-860.3" font-family="Times,serif" font-size="14.00">index</text>
<text text-anchor="start" x="179" y="-845.3" font-family="Times,serif" font-size="14.00">show</text>
<text text-anchor="start" x="179" y="-830.3" font-family="Times,serif" font-size="14.00">update</text>
<polyline fill="none" stroke="black" points="171,-822.5 308,-822.5 "/>
<polyline fill="none" stroke="black" points="171,-798.5 308,-798.5 "/>
<text text-anchor="start" x="179" y="-783.3" font-family="Times,serif" font-size="14.00">exam_params</text>
<text text-anchor="start" x="179" y="-768.3" font-family="Times,serif" font-size="14.00">set_exam</text>
</g>
<!-- HospitalizationsController -->
<g id="node12" class="node">
<title>HospitalizationsController</title>
<path fill="none" stroke="black" d="M354,-589.5C354,-589.5 535,-589.5 535,-589.5 541,-589.5 547,-595.5 547,-601.5 547,-601.5 547,-745.5 547,-745.5 547,-751.5 541,-757.5 535,-757.5 535,-757.5 354,-757.5 354,-757.5 348,-757.5 342,-751.5 342,-745.5 342,-745.5 342,-601.5 342,-601.5 342,-595.5 348,-589.5 354,-589.5"/>
<text text-anchor="middle" x="444.5" y="-742.3" font-family="Times,serif" font-size="14.00">HospitalizationsController</text>
<polyline fill="none" stroke="black" points="342,-734.5 547,-734.5 "/>
<text text-anchor="start" x="350" y="-719.3" font-family="Times,serif" font-size="14.00">create</text>
<text text-anchor="start" x="350" y="-704.3" font-family="Times,serif" font-size="14.00">destroy</text>
<text text-anchor="start" x="350" y="-689.3" font-family="Times,serif" font-size="14.00">index</text>
<text text-anchor="start" x="350" y="-674.3" font-family="Times,serif" font-size="14.00">show</text>
<text text-anchor="start" x="350" y="-659.3" font-family="Times,serif" font-size="14.00">update</text>
<polyline fill="none" stroke="black" points="342,-651.5 547,-651.5 "/>
<polyline fill="none" stroke="black" points="342,-627.5 547,-627.5 "/>
<text text-anchor="start" x="350" y="-612.3" font-family="Times,serif" font-size="14.00">hospitalization_params</text>
<text text-anchor="start" x="350" y="-597.3" font-family="Times,serif" font-size="14.00">set_hospitalization</text>
</g>
<!-- MedicalRecordsController -->
<g id="node13" class="node">
<title>MedicalRecordsController</title>
<path fill="none" stroke="black" d="M639,-304.5C639,-304.5 818,-304.5 818,-304.5 824,-304.5 830,-310.5 830,-316.5 830,-316.5 830,-460.5 830,-460.5 830,-466.5 824,-472.5 818,-472.5 818,-472.5 639,-472.5 639,-472.5 633,-472.5 627,-466.5 627,-460.5 627,-460.5 627,-316.5 627,-316.5 627,-310.5 633,-304.5 639,-304.5"/>
<text text-anchor="middle" x="728.5" y="-457.3" font-family="Times,serif" font-size="14.00">MedicalRecordsController</text>
<polyline fill="none" stroke="black" points="627,-449.5 830,-449.5 "/>
<text text-anchor="start" x="635" y="-434.3" font-family="Times,serif" font-size="14.00">create</text>
<text text-anchor="start" x="635" y="-419.3" font-family="Times,serif" font-size="14.00">destroy</text>
<text text-anchor="start" x="635" y="-404.3" font-family="Times,serif" font-size="14.00">index</text>
<text text-anchor="start" x="635" y="-389.3" font-family="Times,serif" font-size="14.00">show</text>
<text text-anchor="start" x="635" y="-374.3" font-family="Times,serif" font-size="14.00">update</text>
<polyline fill="none" stroke="black" points="627,-366.5 830,-366.5 "/>
<polyline fill="none" stroke="black" points="627,-342.5 830,-342.5 "/>
<text text-anchor="start" x="635" y="-327.3" font-family="Times,serif" font-size="14.00">medical_record_params</text>
<text text-anchor="start" x="635" y="-312.3" font-family="Times,serif" font-size="14.00">set_medical_record</text>
</g>
<!-- NotificationsController -->
<g id="node14" class="node">
<title>NotificationsController</title>
<path fill="none" stroke="black" d="M164,-361.5C164,-361.5 320,-361.5 320,-361.5 326,-361.5 332,-367.5 332,-373.5 332,-373.5 332,-532.5 332,-532.5 332,-538.5 326,-544.5 320,-544.5 320,-544.5 164,-544.5 164,-544.5 158,-544.5 152,-538.5 152,-532.5 152,-532.5 152,-373.5 152,-373.5 152,-367.5 158,-361.5 164,-361.5"/>
<text text-anchor="middle" x="242" y="-529.3" font-family="Times,serif" font-size="14.00">NotificationsController</text>
<polyline fill="none" stroke="black" points="152,-521.5 332,-521.5 "/>
<text text-anchor="start" x="160" y="-506.3" font-family="Times,serif" font-size="14.00">create</text>
<text text-anchor="start" x="160" y="-491.3" font-family="Times,serif" font-size="14.00">destroy</text>
<text text-anchor="start" x="160" y="-476.3" font-family="Times,serif" font-size="14.00">index</text>
<text text-anchor="start" x="160" y="-461.3" font-family="Times,serif" font-size="14.00">mark_as_read</text>
<text text-anchor="start" x="160" y="-446.3" font-family="Times,serif" font-size="14.00">show</text>
<text text-anchor="start" x="160" y="-431.3" font-family="Times,serif" font-size="14.00">update</text>
<polyline fill="none" stroke="black" points="152,-423.5 332,-423.5 "/>
<polyline fill="none" stroke="black" points="152,-399.5 332,-399.5 "/>
<text text-anchor="start" x="160" y="-384.3" font-family="Times,serif" font-size="14.00">notification_params</text>
<text text-anchor="start" x="160" y="-369.3" font-family="Times,serif" font-size="14.00">set_notification</text>
</g>
<!-- PrescriptionsController -->
<g id="node15" class="node">
<title>PrescriptionsController</title>
<path fill="none" stroke="black" d="M411,-152.5C411,-152.5 572,-152.5 572,-152.5 578,-152.5 584,-158.5 584,-164.5 584,-164.5 584,-308.5 584,-308.5 584,-314.5 578,-320.5 572,-320.5 572,-320.5 411,-320.5 411,-320.5 405,-320.5 399,-314.5 399,-308.5 399,-308.5 399,-164.5 399,-164.5 399,-158.5 405,-152.5 411,-152.5"/>
<text text-anchor="middle" x="491.5" y="-305.3" font-family="Times,serif" font-size="14.00">PrescriptionsController</text>
<polyline fill="none" stroke="black" points="399,-297.5 584,-297.5 "/>
<text text-anchor="start" x="407" y="-282.3" font-family="Times,serif" font-size="14.00">create</text>
<text text-anchor="start" x="407" y="-267.3" font-family="Times,serif" font-size="14.00">destroy</text>
<text text-anchor="start" x="407" y="-252.3" font-family="Times,serif" font-size="14.00">index</text>
<text text-anchor="start" x="407" y="-237.3" font-family="Times,serif" font-size="14.00">show</text>
<text text-anchor="start" x="407" y="-222.3" font-family="Times,serif" font-size="14.00">update</text>
<polyline fill="none" stroke="black" points="399,-214.5 584,-214.5 "/>
<polyline fill="none" stroke="black" points="399,-190.5 584,-190.5 "/>
<text text-anchor="start" x="407" y="-175.3" font-family="Times,serif" font-size="14.00">prescription_params</text>
<text text-anchor="start" x="407" y="-160.3" font-family="Times,serif" font-size="14.00">set_prescription</text>
</g>
<!-- RolesController -->
<g id="node16" class="node">
<title>RolesController</title>
<path fill="none" stroke="black" d="M943,-0.5C943,-0.5 1047,-0.5 1047,-0.5 1053,-0.5 1059,-6.5 1059,-12.5 1059,-12.5 1059,-156.5 1059,-156.5 1059,-162.5 1053,-168.5 1047,-168.5 1047,-168.5 943,-168.5 943,-168.5 937,-168.5 931,-162.5 931,-156.5 931,-156.5 931,-12.5 931,-12.5 931,-6.5 937,-0.5 943,-0.5"/>
<text text-anchor="middle" x="995" y="-153.3" font-family="Times,serif" font-size="14.00">RolesController</text>
<polyline fill="none" stroke="black" points="931,-145.5 1059,-145.5 "/>
<text text-anchor="start" x="939" y="-130.3" font-family="Times,serif" font-size="14.00">create</text>
<text text-anchor="start" x="939" y="-115.3" font-family="Times,serif" font-size="14.00">destroy</text>
<text text-anchor="start" x="939" y="-100.3" font-family="Times,serif" font-size="14.00">index</text>
<text text-anchor="start" x="939" y="-85.3" font-family="Times,serif" font-size="14.00">show</text>
<text text-anchor="start" x="939" y="-70.3" font-family="Times,serif" font-size="14.00">update</text>
<polyline fill="none" stroke="black" points="931,-62.5 1059,-62.5 "/>
<polyline fill="none" stroke="black" points="931,-38.5 1059,-38.5 "/>
<text text-anchor="start" x="939" y="-23.3" font-family="Times,serif" font-size="14.00">role_params</text>
<text text-anchor="start" x="939" y="-8.3" font-family="Times,serif" font-size="14.00">set_role</text>
</g>
<!-- SessionsController -->
<g id="node17" class="node">
<title>SessionsController</title>
<path fill="none" stroke="black" d="M639,-38.5C639,-38.5 767,-38.5 767,-38.5 773,-38.5 779,-44.5 779,-50.5 779,-50.5 779,-134.5 779,-134.5 779,-140.5 773,-146.5 767,-146.5 767,-146.5 639,-146.5 639,-146.5 633,-146.5 627,-140.5 627,-134.5 627,-134.5 627,-50.5 627,-50.5 627,-44.5 633,-38.5 639,-38.5"/>
<text text-anchor="middle" x="703" y="-131.3" font-family="Times,serif" font-size="14.00">SessionsController</text>
<polyline fill="none" stroke="black" points="627,-123.5 779,-123.5 "/>
<text text-anchor="start" x="635" y="-108.3" font-family="Times,serif" font-size="14.00">create</text>
<text text-anchor="start" x="635" y="-93.3" font-family="Times,serif" font-size="14.00">destroy</text>
<polyline fill="none" stroke="black" points="627,-85.5 779,-85.5 "/>
<polyline fill="none" stroke="black" points="627,-61.5 779,-61.5 "/>
<text text-anchor="start" x="635" y="-46.3" font-family="Times,serif" font-size="14.00">user_params</text>
</g>
<!-- StatesController -->
<g id="node18" class="node">
<title>StatesController</title>
<path fill="none" stroke="black" d="M12,-152.5C12,-152.5 123,-152.5 123,-152.5 129,-152.5 135,-158.5 135,-164.5 135,-164.5 135,-308.5 135,-308.5 135,-314.5 129,-320.5 123,-320.5 123,-320.5 12,-320.5 12,-320.5 6,-320.5 0,-314.5 0,-308.5 0,-308.5 0,-164.5 0,-164.5 0,-158.5 6,-152.5 12,-152.5"/>
<text text-anchor="middle" x="67.5" y="-305.3" font-family="Times,serif" font-size="14.00">StatesController</text>
<polyline fill="none" stroke="black" points="0,-297.5 135,-297.5 "/>
<text text-anchor="start" x="8" y="-282.3" font-family="Times,serif" font-size="14.00">create</text>
<text text-anchor="start" x="8" y="-267.3" font-family="Times,serif" font-size="14.00">destroy</text>
<text text-anchor="start" x="8" y="-252.3" font-family="Times,serif" font-size="14.00">index</text>
<text text-anchor="start" x="8" y="-237.3" font-family="Times,serif" font-size="14.00">show</text>
<text text-anchor="start" x="8" y="-222.3" font-family="Times,serif" font-size="14.00">update</text>
<polyline fill="none" stroke="black" points="0,-214.5 135,-214.5 "/>
<polyline fill="none" stroke="black" points="0,-190.5 135,-190.5 "/>
<text text-anchor="start" x="8" y="-175.3" font-family="Times,serif" font-size="14.00">set_state</text>
<text text-anchor="start" x="8" y="-160.3" font-family="Times,serif" font-size="14.00">state_params</text>
</g>
</g>
</svg>
