<?xml version="1.0" encoding="UTF-8" standalone="no"?>
<!DOCTYPE svg PUBLIC "-//W3C//DTD SVG 1.1//EN"
 "http://www.w3.org/Graphics/SVG/1.1/DTD/svg11.dtd">
<!-- Generated by graphviz version 2.43.0 (0)
 -->
<!-- Title: models_diagram Pages: 1 -->
<svg width="4308pt" height="730pt"
 viewBox="0.00 0.00 4308.00 730.00" xmlns="http://www.w3.org/2000/svg" xmlns:xlink="http://www.w3.org/1999/xlink">
<g id="graph0" class="graph" transform="scale(1 1) rotate(0) translate(4 726)">
<title>models_diagram</title>
<polygon fill="transparent" stroke="transparent" points="-4,4 -4,-726 4304,-726 4304,4 -4,4"/>
<!-- ApplicationRecord -->
<g id="node1" class="node">
<title>ApplicationRecord</title>
<ellipse fill="none" stroke="black" cx="3498.5" cy="-653.5" rx="95.58" ry="18"/>
<text text-anchor="middle" x="3498.5" y="-649.8" font-family="Times,serif" font-size="14.00">ApplicationRecord</text>
</g>
<!-- Bed -->
<g id="node2" class="node">
<title>Bed</title>
<path fill="none" stroke="black" d="M12,-147.5C12,-147.5 323,-147.5 323,-147.5 329,-147.5 335,-153.5 335,-159.5 335,-159.5 335,-271.5 335,-271.5 335,-277.5 329,-283.5 323,-283.5 323,-283.5 12,-283.5 12,-283.5 6,-283.5 0,-277.5 0,-271.5 0,-271.5 0,-159.5 0,-159.5 0,-153.5 6,-147.5 12,-147.5"/>
<text text-anchor="middle" x="167.5" y="-268.3" font-family="Times,serif" font-size="14.00">Bed</text>
<polyline fill="none" stroke="black" points="0,-260.5 335,-260.5 "/>
<text text-anchor="start" x="8" y="-245.3" font-family="Times,serif" font-size="14.00">id :bigint</text>
<text text-anchor="start" x="8" y="-230.3" font-family="Times,serif" font-size="14.00">company_id :bigint</text>
<text text-anchor="start" x="8" y="-215.3" font-family="Times,serif" font-size="14.00">number :character varying(20)</text>
<text text-anchor="start" x="8" y="-200.3" font-family="Times,serif" font-size="14.00">bed_type_id :bigint</text>
<text text-anchor="start" x="8" y="-185.3" font-family="Times,serif" font-size="14.00">status :character varying</text>
<text text-anchor="start" x="8" y="-170.3" font-family="Times,serif" font-size="14.00">created_at :timestamp(6) without time zone</text>
<text text-anchor="start" x="8" y="-155.3" font-family="Times,serif" font-size="14.00">updated_at :timestamp(6) without time zone</text>
</g>
<!-- Audited::Audit -->
<g id="node17" class="node">
<title>Audited::Audit</title>
<ellipse fill="none" stroke="black" cx="2285.5" cy="-18" rx="77.19" ry="18"/>
<text text-anchor="middle" x="2285.5" y="-14.3" font-family="Times,serif" font-size="14.00">Audited::Audit</text>
</g>
<!-- Bed&#45;&gt;Audited::Audit -->
<g id="edge1" class="edge">
<title>Bed&#45;&gt;Audited::Audit</title>
<path fill="none" stroke="#73f5e6" d="M249.18,-141.13C277.2,-120 309.99,-99.36 343.5,-87 516.69,-23.15 573.16,-63.45 757.5,-54 1305.19,-25.92 1964.48,-20.37 2198.19,-19.27"/>
<polygon fill="#73f5e6" stroke="#73f5e6" points="248.95,-141.3 238.28,-143.82 244.99,-144.34 241.02,-147.39 241.02,-147.39 241.02,-147.39 244.99,-144.34 243.76,-150.96 248.95,-141.3 248.95,-141.3"/>
<polygon fill="#73f5e6" stroke="#73f5e6" points="2198.33,-19.27 2208.35,-23.72 2203.33,-19.25 2208.33,-19.22 2208.33,-19.22 2208.33,-19.22 2203.33,-19.25 2208.31,-14.72 2198.33,-19.27 2198.33,-19.27"/>
<text text-anchor="middle" x="780" y="-57.8" font-family="Times,serif" font-size="14.00">audits</text>
</g>
<!-- BedType -->
<g id="node3" class="node">
<title>BedType</title>
<path fill="none" stroke="black" d="M365,-170C365,-170 676,-170 676,-170 682,-170 688,-176 688,-182 688,-182 688,-249 688,-249 688,-255 682,-261 676,-261 676,-261 365,-261 365,-261 359,-261 353,-255 353,-249 353,-249 353,-182 353,-182 353,-176 359,-170 365,-170"/>
<text text-anchor="middle" x="520.5" y="-245.8" font-family="Times,serif" font-size="14.00">BedType</text>
<polyline fill="none" stroke="black" points="353,-238 688,-238 "/>
<text text-anchor="start" x="361" y="-222.8" font-family="Times,serif" font-size="14.00">id :bigint</text>
<text text-anchor="start" x="361" y="-207.8" font-family="Times,serif" font-size="14.00">name :character varying</text>
<text text-anchor="start" x="361" y="-192.8" font-family="Times,serif" font-size="14.00">created_at :timestamp(6) without time zone</text>
<text text-anchor="start" x="361" y="-177.8" font-family="Times,serif" font-size="14.00">updated_at :timestamp(6) without time zone</text>
</g>
<!-- BedType&#45;&gt;Audited::Audit -->
<g id="edge2" class="edge">
<title>BedType&#45;&gt;Audited::Audit</title>
<path fill="none" stroke="#3bc1a2" d="M574.71,-163.14C607.36,-135.48 651.28,-103.69 696.5,-87 837.33,-35.01 1885.55,-22.28 2197.91,-19.62"/>
<polygon fill="#3bc1a2" stroke="#3bc1a2" points="574.66,-163.18 564.14,-166.29 570.87,-166.44 567.07,-169.7 567.07,-169.7 567.07,-169.7 570.87,-166.44 570.01,-173.11 574.66,-163.18 574.66,-163.18"/>
<polygon fill="#3bc1a2" stroke="#3bc1a2" points="2198.27,-19.62 2208.3,-24.04 2203.27,-19.58 2208.27,-19.54 2208.27,-19.54 2208.27,-19.54 2203.27,-19.58 2208.23,-15.04 2198.27,-19.62 2198.27,-19.62"/>
<text text-anchor="middle" x="983" y="-57.8" font-family="Times,serif" font-size="14.00">audits</text>
</g>
<!-- Company -->
<g id="node4" class="node">
<title>Company</title>
<path fill="none" stroke="black" d="M718,-87.5C718,-87.5 1029,-87.5 1029,-87.5 1035,-87.5 1041,-93.5 1041,-99.5 1041,-99.5 1041,-331.5 1041,-331.5 1041,-337.5 1035,-343.5 1029,-343.5 1029,-343.5 718,-343.5 718,-343.5 712,-343.5 706,-337.5 706,-331.5 706,-331.5 706,-99.5 706,-99.5 706,-93.5 712,-87.5 718,-87.5"/>
<text text-anchor="middle" x="873.5" y="-328.3" font-family="Times,serif" font-size="14.00">Company</text>
<polyline fill="none" stroke="black" points="706,-320.5 1041,-320.5 "/>
<text text-anchor="start" x="714" y="-305.3" font-family="Times,serif" font-size="14.00">id :bigint</text>
<text text-anchor="start" x="714" y="-290.3" font-family="Times,serif" font-size="14.00">cnpj :character varying(20)</text>
<text text-anchor="start" x="714" y="-275.3" font-family="Times,serif" font-size="14.00">email :character varying</text>
<text text-anchor="start" x="714" y="-260.3" font-family="Times,serif" font-size="14.00">name :character varying</text>
<text text-anchor="start" x="714" y="-245.3" font-family="Times,serif" font-size="14.00">fantasy_name :character varying</text>
<text text-anchor="start" x="714" y="-230.3" font-family="Times,serif" font-size="14.00">address :character varying</text>
<text text-anchor="start" x="714" y="-215.3" font-family="Times,serif" font-size="14.00">address_number :character varying</text>
<text text-anchor="start" x="714" y="-200.3" font-family="Times,serif" font-size="14.00">district :character varying</text>
<text text-anchor="start" x="714" y="-185.3" font-family="Times,serif" font-size="14.00">city_id :bigint</text>
<text text-anchor="start" x="714" y="-170.3" font-family="Times,serif" font-size="14.00">state_id :bigint</text>
<text text-anchor="start" x="714" y="-155.3" font-family="Times,serif" font-size="14.00">zipcode :character varying</text>
<text text-anchor="start" x="714" y="-140.3" font-family="Times,serif" font-size="14.00">phone :character varying</text>
<text text-anchor="start" x="714" y="-125.3" font-family="Times,serif" font-size="14.00">company_type_id :bigint</text>
<text text-anchor="start" x="714" y="-110.3" font-family="Times,serif" font-size="14.00">created_at :timestamp(6) without time zone</text>
<text text-anchor="start" x="714" y="-95.3" font-family="Times,serif" font-size="14.00">updated_at :timestamp(6) without time zone</text>
</g>
<!-- Company&#45;&gt;Audited::Audit -->
<g id="edge3" class="edge">
<title>Company&#45;&gt;Audited::Audit</title>
<path fill="none" stroke="#276b6b" d="M1050.78,-87.18C1194.44,-46.14 1942.05,-26.48 2198.84,-20.78"/>
<polygon fill="#276b6b" stroke="#276b6b" points="1050.55,-87.25 1039.64,-86.06 1045.79,-88.8 1041.03,-90.34 1041.03,-90.34 1041.03,-90.34 1045.79,-88.8 1042.42,-94.62 1050.55,-87.25 1050.55,-87.25"/>
<polygon fill="#276b6b" stroke="#276b6b" points="2198.87,-20.78 2208.97,-25.06 2203.87,-20.67 2208.87,-20.56 2208.87,-20.56 2208.87,-20.56 2203.87,-20.67 2208.77,-16.06 2198.87,-20.78 2198.87,-20.78"/>
<text text-anchor="middle" x="1335" y="-57.8" font-family="Times,serif" font-size="14.00">audits</text>
</g>
<!-- Consultation -->
<g id="node5" class="node">
<title>Consultation</title>
<path fill="none" stroke="black" d="M1071,-110C1071,-110 1382,-110 1382,-110 1388,-110 1394,-116 1394,-122 1394,-122 1394,-309 1394,-309 1394,-315 1388,-321 1382,-321 1382,-321 1071,-321 1071,-321 1065,-321 1059,-315 1059,-309 1059,-309 1059,-122 1059,-122 1059,-116 1065,-110 1071,-110"/>
<text text-anchor="middle" x="1226.5" y="-305.8" font-family="Times,serif" font-size="14.00">Consultation</text>
<polyline fill="none" stroke="black" points="1059,-298 1394,-298 "/>
<text text-anchor="start" x="1067" y="-282.8" font-family="Times,serif" font-size="14.00">id :bigint</text>
<text text-anchor="start" x="1067" y="-267.8" font-family="Times,serif" font-size="14.00">patient_id :bigint</text>
<text text-anchor="start" x="1067" y="-252.8" font-family="Times,serif" font-size="14.00">professional_id :bigint</text>
<text text-anchor="start" x="1067" y="-237.8" font-family="Times,serif" font-size="14.00">company_id :bigint</text>
<text text-anchor="start" x="1067" y="-222.8" font-family="Times,serif" font-size="14.00">consultation_type_id :bigint</text>
<text text-anchor="start" x="1067" y="-207.8" font-family="Times,serif" font-size="14.00">date :date</text>
<text text-anchor="start" x="1067" y="-192.8" font-family="Times,serif" font-size="14.00">start_time :time without time zone</text>
<text text-anchor="start" x="1067" y="-177.8" font-family="Times,serif" font-size="14.00">end_time :time without time zone</text>
<text text-anchor="start" x="1067" y="-162.8" font-family="Times,serif" font-size="14.00">status :character varying</text>
<text text-anchor="start" x="1067" y="-147.8" font-family="Times,serif" font-size="14.00">notes :text</text>
<text text-anchor="start" x="1067" y="-132.8" font-family="Times,serif" font-size="14.00">created_at :timestamp(6) without time zone</text>
<text text-anchor="start" x="1067" y="-117.8" font-family="Times,serif" font-size="14.00">updated_at :timestamp(6) without time zone</text>
</g>
<!-- Consultation&#45;&gt;Audited::Audit -->
<g id="edge4" class="edge">
<title>Consultation&#45;&gt;Audited::Audit</title>
<path fill="none" stroke="#00fbbb" d="M1363.64,-105.03C1376.32,-98.07 1389.36,-91.9 1402.5,-87 1546.59,-33.26 2004.67,-21.98 2198.04,-19.62"/>
<polygon fill="#00fbbb" stroke="#00fbbb" points="1363.62,-105.04 1352.7,-106.05 1359.27,-107.5 1354.92,-109.97 1354.92,-109.97 1354.92,-109.97 1359.27,-107.5 1357.14,-113.88 1363.62,-105.04 1363.62,-105.04"/>
<polygon fill="#00fbbb" stroke="#00fbbb" points="2198.16,-19.62 2208.21,-24 2203.16,-19.56 2208.16,-19.5 2208.16,-19.5 2208.16,-19.5 2203.16,-19.56 2208.11,-15 2198.16,-19.62 2198.16,-19.62"/>
<text text-anchor="middle" x="1568" y="-57.8" font-family="Times,serif" font-size="14.00">audits</text>
</g>
<!-- ConsultationType -->
<g id="node6" class="node">
<title>ConsultationType</title>
<path fill="none" stroke="black" d="M1424,-170C1424,-170 1735,-170 1735,-170 1741,-170 1747,-176 1747,-182 1747,-182 1747,-249 1747,-249 1747,-255 1741,-261 1735,-261 1735,-261 1424,-261 1424,-261 1418,-261 1412,-255 1412,-249 1412,-249 1412,-182 1412,-182 1412,-176 1418,-170 1424,-170"/>
<text text-anchor="middle" x="1579.5" y="-245.8" font-family="Times,serif" font-size="14.00">ConsultationType</text>
<polyline fill="none" stroke="black" points="1412,-238 1747,-238 "/>
<text text-anchor="start" x="1420" y="-222.8" font-family="Times,serif" font-size="14.00">id :bigint</text>
<text text-anchor="start" x="1420" y="-207.8" font-family="Times,serif" font-size="14.00">name :character varying</text>
<text text-anchor="start" x="1420" y="-192.8" font-family="Times,serif" font-size="14.00">created_at :timestamp(6) without time zone</text>
<text text-anchor="start" x="1420" y="-177.8" font-family="Times,serif" font-size="14.00">updated_at :timestamp(6) without time zone</text>
</g>
<!-- ConsultationType&#45;&gt;Audited::Audit -->
<g id="edge5" class="edge">
<title>ConsultationType&#45;&gt;Audited::Audit</title>
<path fill="none" stroke="#93eaef" d="M1634.73,-163.34C1667.4,-136.09 1711.01,-104.63 1755.5,-87 1834.85,-55.56 2073.97,-34.18 2202.17,-24.65"/>
<polygon fill="#93eaef" stroke="#93eaef" points="1634.72,-163.35 1624.18,-166.37 1630.9,-166.58 1627.08,-169.81 1627.08,-169.81 1627.08,-169.81 1630.9,-166.58 1629.99,-173.24 1634.72,-163.35 1634.72,-163.35"/>
<polygon fill="#93eaef" stroke="#93eaef" points="2202.37,-24.63 2212.67,-28.39 2207.35,-24.27 2212.34,-23.9 2212.34,-23.9 2212.34,-23.9 2207.35,-24.27 2212.01,-19.41 2202.37,-24.63 2202.37,-24.63"/>
<text text-anchor="middle" x="1928" y="-57.8" font-family="Times,serif" font-size="14.00">audits</text>
</g>
<!-- Exam -->
<g id="node7" class="node">
<title>Exam</title>
<path fill="none" stroke="black" d="M1777,-110C1777,-110 2088,-110 2088,-110 2094,-110 2100,-116 2100,-122 2100,-122 2100,-309 2100,-309 2100,-315 2094,-321 2088,-321 2088,-321 1777,-321 1777,-321 1771,-321 1765,-315 1765,-309 1765,-309 1765,-122 1765,-122 1765,-116 1771,-110 1777,-110"/>
<text text-anchor="middle" x="1932.5" y="-305.8" font-family="Times,serif" font-size="14.00">Exam</text>
<polyline fill="none" stroke="black" points="1765,-298 2100,-298 "/>
<text text-anchor="start" x="1773" y="-282.8" font-family="Times,serif" font-size="14.00">id :bigint</text>
<text text-anchor="start" x="1773" y="-267.8" font-family="Times,serif" font-size="14.00">patient_id :bigint</text>
<text text-anchor="start" x="1773" y="-252.8" font-family="Times,serif" font-size="14.00">professional_id :bigint</text>
<text text-anchor="start" x="1773" y="-237.8" font-family="Times,serif" font-size="14.00">company_id :bigint</text>
<text text-anchor="start" x="1773" y="-222.8" font-family="Times,serif" font-size="14.00">exam_type_id :bigint</text>
<text text-anchor="start" x="1773" y="-207.8" font-family="Times,serif" font-size="14.00">consultation_id :bigint</text>
<text text-anchor="start" x="1773" y="-192.8" font-family="Times,serif" font-size="14.00">scheduled_date :date</text>
<text text-anchor="start" x="1773" y="-177.8" font-family="Times,serif" font-size="14.00">result_date :date</text>
<text text-anchor="start" x="1773" y="-162.8" font-family="Times,serif" font-size="14.00">status :character varying</text>
<text text-anchor="start" x="1773" y="-147.8" font-family="Times,serif" font-size="14.00">result :text</text>
<text text-anchor="start" x="1773" y="-132.8" font-family="Times,serif" font-size="14.00">created_at :timestamp(6) without time zone</text>
<text text-anchor="start" x="1773" y="-117.8" font-family="Times,serif" font-size="14.00">updated_at :timestamp(6) without time zone</text>
</g>
<!-- Exam&#45;&gt;Audited::Audit -->
<g id="edge6" class="edge">
<title>Exam&#45;&gt;Audited::Audit</title>
<path fill="none" stroke="#7cf60b" d="M2078.77,-104.32C2088.66,-98.19 2098.62,-92.36 2108.5,-87 2147.65,-65.77 2194.85,-47.99 2230.66,-35.94"/>
<polygon fill="#7cf60b" stroke="#7cf60b" points="2078.56,-104.45 2067.7,-105.97 2074.33,-107.11 2070.1,-109.78 2070.1,-109.78 2070.1,-109.78 2074.33,-107.11 2072.5,-113.59 2078.56,-104.45 2078.56,-104.45"/>
<polygon fill="#7cf60b" stroke="#7cf60b" points="2230.95,-35.84 2241.86,-36.97 2235.7,-34.27 2240.44,-32.7 2240.44,-32.7 2240.44,-32.7 2235.7,-34.27 2239.02,-28.43 2230.95,-35.84 2230.95,-35.84"/>
<text text-anchor="middle" x="2202" y="-57.8" font-family="Times,serif" font-size="14.00">audits</text>
</g>
<!-- ExamType -->
<g id="node8" class="node">
<title>ExamType</title>
<path fill="none" stroke="black" d="M2130,-170C2130,-170 2441,-170 2441,-170 2447,-170 2453,-176 2453,-182 2453,-182 2453,-249 2453,-249 2453,-255 2447,-261 2441,-261 2441,-261 2130,-261 2130,-261 2124,-261 2118,-255 2118,-249 2118,-249 2118,-182 2118,-182 2118,-176 2124,-170 2130,-170"/>
<text text-anchor="middle" x="2285.5" y="-245.8" font-family="Times,serif" font-size="14.00">ExamType</text>
<polyline fill="none" stroke="black" points="2118,-238 2453,-238 "/>
<text text-anchor="start" x="2126" y="-222.8" font-family="Times,serif" font-size="14.00">id :bigint</text>
<text text-anchor="start" x="2126" y="-207.8" font-family="Times,serif" font-size="14.00">name :character varying</text>
<text text-anchor="start" x="2126" y="-192.8" font-family="Times,serif" font-size="14.00">created_at :timestamp(6) without time zone</text>
<text text-anchor="start" x="2126" y="-177.8" font-family="Times,serif" font-size="14.00">updated_at :timestamp(6) without time zone</text>
</g>
<!-- ExamType&#45;&gt;Audited::Audit -->
<g id="edge7" class="edge">
<title>ExamType&#45;&gt;Audited::Audit</title>
<path fill="none" stroke="#89ed1d" d="M2285.5,-159.39C2285.5,-122.57 2285.5,-75.71 2285.5,-46.53"/>
<polygon fill="#89ed1d" stroke="#89ed1d" points="2285.5,-159.65 2281,-169.65 2285.5,-164.65 2285.5,-169.65 2285.5,-169.65 2285.5,-169.65 2285.5,-164.65 2290,-169.65 2285.5,-159.65 2285.5,-159.65"/>
<polygon fill="#89ed1d" stroke="#89ed1d" points="2285.5,-46.27 2290,-36.27 2285.5,-41.27 2285.5,-36.27 2285.5,-36.27 2285.5,-36.27 2285.5,-41.27 2281,-36.27 2285.5,-46.27 2285.5,-46.27"/>
<text text-anchor="middle" x="2308" y="-57.8" font-family="Times,serif" font-size="14.00">audits</text>
</g>
<!-- Hospitalization -->
<g id="node9" class="node">
<title>Hospitalization</title>
<path fill="none" stroke="black" d="M2483,-110C2483,-110 2794,-110 2794,-110 2800,-110 2806,-116 2806,-122 2806,-122 2806,-309 2806,-309 2806,-315 2800,-321 2794,-321 2794,-321 2483,-321 2483,-321 2477,-321 2471,-315 2471,-309 2471,-309 2471,-122 2471,-122 2471,-116 2477,-110 2483,-110"/>
<text text-anchor="middle" x="2638.5" y="-305.8" font-family="Times,serif" font-size="14.00">Hospitalization</text>
<polyline fill="none" stroke="black" points="2471,-298 2806,-298 "/>
<text text-anchor="start" x="2479" y="-282.8" font-family="Times,serif" font-size="14.00">id :bigint</text>
<text text-anchor="start" x="2479" y="-267.8" font-family="Times,serif" font-size="14.00">patient_id :bigint</text>
<text text-anchor="start" x="2479" y="-252.8" font-family="Times,serif" font-size="14.00">professional_id :bigint</text>
<text text-anchor="start" x="2479" y="-237.8" font-family="Times,serif" font-size="14.00">bed_id :bigint</text>
<text text-anchor="start" x="2479" y="-222.8" font-family="Times,serif" font-size="14.00">company_id :bigint</text>
<text text-anchor="start" x="2479" y="-207.8" font-family="Times,serif" font-size="14.00">admission_date :date</text>
<text text-anchor="start" x="2479" y="-192.8" font-family="Times,serif" font-size="14.00">discharge_date :date</text>
<text text-anchor="start" x="2479" y="-177.8" font-family="Times,serif" font-size="14.00">reason :text</text>
<text text-anchor="start" x="2479" y="-162.8" font-family="Times,serif" font-size="14.00">status :character varying</text>
<text text-anchor="start" x="2479" y="-147.8" font-family="Times,serif" font-size="14.00">notes :text</text>
<text text-anchor="start" x="2479" y="-132.8" font-family="Times,serif" font-size="14.00">created_at :timestamp(6) without time zone</text>
<text text-anchor="start" x="2479" y="-117.8" font-family="Times,serif" font-size="14.00">updated_at :timestamp(6) without time zone</text>
</g>
<!-- Hospitalization&#45;&gt;Audited::Audit -->
<g id="edge8" class="edge">
<title>Hospitalization&#45;&gt;Audited::Audit</title>
<path fill="none" stroke="#d8e0f2" d="M2491.36,-104.36C2481.42,-98.22 2471.42,-92.37 2461.5,-87 2422.54,-65.89 2375.6,-48.1 2340.01,-36.02"/>
<polygon fill="#d8e0f2" stroke="#d8e0f2" points="2491.6,-104.51 2497.68,-113.64 2495.83,-107.17 2500.07,-109.82 2500.07,-109.82 2500.07,-109.82 2495.83,-107.17 2502.46,-106.01 2491.6,-104.51 2491.6,-104.51"/>
<polygon fill="#d8e0f2" stroke="#d8e0f2" points="2339.77,-35.94 2331.71,-28.5 2335.02,-34.35 2330.28,-32.77 2330.28,-32.77 2330.28,-32.77 2335.02,-34.35 2328.85,-37.03 2339.77,-35.94 2339.77,-35.94"/>
<text text-anchor="middle" x="2447" y="-57.8" font-family="Times,serif" font-size="14.00">audits</text>
</g>
<!-- MedicalRecord -->
<g id="node10" class="node">
<title>MedicalRecord</title>
<path fill="none" stroke="black" d="M2836,-125C2836,-125 3147,-125 3147,-125 3153,-125 3159,-131 3159,-137 3159,-137 3159,-294 3159,-294 3159,-300 3153,-306 3147,-306 3147,-306 2836,-306 2836,-306 2830,-306 2824,-300 2824,-294 2824,-294 2824,-137 2824,-137 2824,-131 2830,-125 2836,-125"/>
<text text-anchor="middle" x="2991.5" y="-290.8" font-family="Times,serif" font-size="14.00">MedicalRecord</text>
<polyline fill="none" stroke="black" points="2824,-283 3159,-283 "/>
<text text-anchor="start" x="2832" y="-267.8" font-family="Times,serif" font-size="14.00">id :bigint</text>
<text text-anchor="start" x="2832" y="-252.8" font-family="Times,serif" font-size="14.00">patient_id :bigint</text>
<text text-anchor="start" x="2832" y="-237.8" font-family="Times,serif" font-size="14.00">professional_id :bigint</text>
<text text-anchor="start" x="2832" y="-222.8" font-family="Times,serif" font-size="14.00">company_id :bigint</text>
<text text-anchor="start" x="2832" y="-207.8" font-family="Times,serif" font-size="14.00">consultation_id :bigint</text>
<text text-anchor="start" x="2832" y="-192.8" font-family="Times,serif" font-size="14.00">date :date</text>
<text text-anchor="start" x="2832" y="-177.8" font-family="Times,serif" font-size="14.00">notes :text</text>
<text text-anchor="start" x="2832" y="-162.8" font-family="Times,serif" font-size="14.00">diagnosis :text</text>
<text text-anchor="start" x="2832" y="-147.8" font-family="Times,serif" font-size="14.00">created_at :timestamp(6) without time zone</text>
<text text-anchor="start" x="2832" y="-132.8" font-family="Times,serif" font-size="14.00">updated_at :timestamp(6) without time zone</text>
</g>
<!-- MedicalRecord&#45;&gt;Audited::Audit -->
<g id="edge9" class="edge">
<title>MedicalRecord&#45;&gt;Audited::Audit</title>
<path fill="none" stroke="#b01a7e" d="M2875.95,-119.19C2856.36,-106.66 2835.52,-95.3 2814.5,-87 2735.36,-55.75 2497.24,-34.33 2369.17,-24.72"/>
<polygon fill="#b01a7e" stroke="#b01a7e" points="2876.2,-119.36 2882.1,-128.6 2880.38,-122.1 2884.57,-124.83 2884.57,-124.83 2884.57,-124.83 2880.38,-122.1 2887.03,-121.07 2876.2,-119.36 2876.2,-119.36"/>
<polygon fill="#b01a7e" stroke="#b01a7e" points="2368.98,-24.71 2359.34,-19.48 2364,-24.34 2359.01,-23.97 2359.01,-23.97 2359.01,-23.97 2364,-24.34 2358.68,-28.46 2368.98,-24.71 2368.98,-24.71"/>
<text text-anchor="middle" x="2764" y="-57.8" font-family="Times,serif" font-size="14.00">audits</text>
</g>
<!-- Notification -->
<g id="node11" class="node">
<title>Notification</title>
<path fill="none" stroke="black" d="M3189,-117.5C3189,-117.5 3500,-117.5 3500,-117.5 3506,-117.5 3512,-123.5 3512,-129.5 3512,-129.5 3512,-301.5 3512,-301.5 3512,-307.5 3506,-313.5 3500,-313.5 3500,-313.5 3189,-313.5 3189,-313.5 3183,-313.5 3177,-307.5 3177,-301.5 3177,-301.5 3177,-129.5 3177,-129.5 3177,-123.5 3183,-117.5 3189,-117.5"/>
<text text-anchor="middle" x="3344.5" y="-298.3" font-family="Times,serif" font-size="14.00">Notification</text>
<polyline fill="none" stroke="black" points="3177,-290.5 3512,-290.5 "/>
<text text-anchor="start" x="3185" y="-275.3" font-family="Times,serif" font-size="14.00">id :bigint</text>
<text text-anchor="start" x="3185" y="-260.3" font-family="Times,serif" font-size="14.00">user_id :bigint</text>
<text text-anchor="start" x="3185" y="-245.3" font-family="Times,serif" font-size="14.00">title :character varying</text>
<text text-anchor="start" x="3185" y="-230.3" font-family="Times,serif" font-size="14.00">message :text</text>
<text text-anchor="start" x="3185" y="-215.3" font-family="Times,serif" font-size="14.00">read :boolean</text>
<text text-anchor="start" x="3185" y="-200.3" font-family="Times,serif" font-size="14.00">sent_at :timestamp(6) without time zone</text>
<text text-anchor="start" x="3185" y="-185.3" font-family="Times,serif" font-size="14.00">delivery_channel :character varying</text>
<text text-anchor="start" x="3185" y="-170.3" font-family="Times,serif" font-size="14.00">context_type :character varying</text>
<text text-anchor="start" x="3185" y="-155.3" font-family="Times,serif" font-size="14.00">context_id :integer</text>
<text text-anchor="start" x="3185" y="-140.3" font-family="Times,serif" font-size="14.00">created_at :timestamp(6) without time zone</text>
<text text-anchor="start" x="3185" y="-125.3" font-family="Times,serif" font-size="14.00">updated_at :timestamp(6) without time zone</text>
</g>
<!-- Notification&#45;&gt;Audited::Audit -->
<g id="edge10" class="edge">
<title>Notification&#45;&gt;Audited::Audit</title>
<path fill="none" stroke="#6d34ea" d="M3218.99,-112.14C3202.39,-102.26 3185.03,-93.52 3167.5,-87 3023.51,-33.49 2565.98,-22.09 2372.85,-19.66"/>
<polygon fill="#6d34ea" stroke="#6d34ea" points="3219.06,-112.18 3225.24,-121.24 3223.32,-114.79 3227.59,-117.4 3227.59,-117.4 3227.59,-117.4 3223.32,-114.79 3229.94,-113.56 3219.06,-112.18 3219.06,-112.18"/>
<polygon fill="#6d34ea" stroke="#6d34ea" points="2372.74,-19.66 2362.8,-15.04 2367.74,-19.6 2362.74,-19.54 2362.74,-19.54 2362.74,-19.54 2367.74,-19.6 2362.69,-24.03 2372.74,-19.66 2372.74,-19.66"/>
<text text-anchor="middle" x="3121" y="-57.8" font-family="Times,serif" font-size="14.00">audits</text>
</g>
<!-- Prescription -->
<g id="node12" class="node">
<title>Prescription</title>
<path fill="none" stroke="black" d="M3542,-140C3542,-140 3853,-140 3853,-140 3859,-140 3865,-146 3865,-152 3865,-152 3865,-279 3865,-279 3865,-285 3859,-291 3853,-291 3853,-291 3542,-291 3542,-291 3536,-291 3530,-285 3530,-279 3530,-279 3530,-152 3530,-152 3530,-146 3536,-140 3542,-140"/>
<text text-anchor="middle" x="3697.5" y="-275.8" font-family="Times,serif" font-size="14.00">Prescription</text>
<polyline fill="none" stroke="black" points="3530,-268 3865,-268 "/>
<text text-anchor="start" x="3538" y="-252.8" font-family="Times,serif" font-size="14.00">id :bigint</text>
<text text-anchor="start" x="3538" y="-237.8" font-family="Times,serif" font-size="14.00">consultation_id :bigint</text>
<text text-anchor="start" x="3538" y="-222.8" font-family="Times,serif" font-size="14.00">professional_id :bigint</text>
<text text-anchor="start" x="3538" y="-207.8" font-family="Times,serif" font-size="14.00">patient_id :bigint</text>
<text text-anchor="start" x="3538" y="-192.8" font-family="Times,serif" font-size="14.00">company_id :bigint</text>
<text text-anchor="start" x="3538" y="-177.8" font-family="Times,serif" font-size="14.00">content :text</text>
<text text-anchor="start" x="3538" y="-162.8" font-family="Times,serif" font-size="14.00">created_at :timestamp(6) without time zone</text>
<text text-anchor="start" x="3538" y="-147.8" font-family="Times,serif" font-size="14.00">updated_at :timestamp(6) without time zone</text>
</g>
<!-- Prescription&#45;&gt;Audited::Audit -->
<g id="edge11" class="edge">
<title>Prescription&#45;&gt;Audited::Audit</title>
<path fill="none" stroke="#4f8658" d="M3605.05,-133.85C3579.25,-115.41 3550.13,-98.02 3520.5,-87 3413.75,-47.28 2635.67,-26.69 2372.34,-20.8"/>
<polygon fill="#4f8658" stroke="#4f8658" points="3605.22,-133.97 3610.65,-143.5 3609.26,-136.92 3613.3,-139.86 3613.3,-139.86 3613.3,-139.86 3609.26,-136.92 3615.95,-136.22 3605.22,-133.97 3605.22,-133.97"/>
<polygon fill="#4f8658" stroke="#4f8658" points="2372.06,-20.8 2362.16,-16.08 2367.06,-20.69 2362.06,-20.58 2362.06,-20.58 2362.06,-20.58 2367.06,-20.69 2361.96,-25.08 2372.06,-20.8 2372.06,-20.8"/>
<text text-anchor="middle" x="3438" y="-57.8" font-family="Times,serif" font-size="14.00">audits</text>
</g>
<!-- Role -->
<g id="node13" class="node">
<title>Role</title>
<path fill="none" stroke="black" d="M3977,-600.5C3977,-600.5 4288,-600.5 4288,-600.5 4294,-600.5 4300,-606.5 4300,-612.5 4300,-612.5 4300,-694.5 4300,-694.5 4300,-700.5 4294,-706.5 4288,-706.5 4288,-706.5 3977,-706.5 3977,-706.5 3971,-706.5 3965,-700.5 3965,-694.5 3965,-694.5 3965,-612.5 3965,-612.5 3965,-606.5 3971,-600.5 3977,-600.5"/>
<text text-anchor="middle" x="4132.5" y="-691.3" font-family="Times,serif" font-size="14.00">Role</text>
<polyline fill="none" stroke="black" points="3965,-683.5 4300,-683.5 "/>
<text text-anchor="start" x="3973" y="-668.3" font-family="Times,serif" font-size="14.00">id :bigint</text>
<text text-anchor="start" x="3973" y="-653.3" font-family="Times,serif" font-size="14.00">name :character varying</text>
<text text-anchor="start" x="3973" y="-638.3" font-family="Times,serif" font-size="14.00">description :text</text>
<text text-anchor="start" x="3973" y="-623.3" font-family="Times,serif" font-size="14.00">created_at :timestamp(6) without time zone</text>
<text text-anchor="start" x="3973" y="-608.3" font-family="Times,serif" font-size="14.00">updated_at :timestamp(6) without time zone</text>
</g>
<!-- User -->
<g id="node15" class="node">
<title>User</title>
<path fill="none" stroke="black" d="M3763,-381.5C3763,-381.5 4074,-381.5 4074,-381.5 4080,-381.5 4086,-387.5 4086,-393.5 4086,-393.5 4086,-535.5 4086,-535.5 4086,-541.5 4080,-547.5 4074,-547.5 4074,-547.5 3763,-547.5 3763,-547.5 3757,-547.5 3751,-541.5 3751,-535.5 3751,-535.5 3751,-393.5 3751,-393.5 3751,-387.5 3757,-381.5 3763,-381.5"/>
<text text-anchor="middle" x="3918.5" y="-532.3" font-family="Times,serif" font-size="14.00">User</text>
<polyline fill="none" stroke="black" points="3751,-524.5 4086,-524.5 "/>
<text text-anchor="start" x="3759" y="-509.3" font-family="Times,serif" font-size="14.00">id :bigint</text>
<text text-anchor="start" x="3759" y="-494.3" font-family="Times,serif" font-size="14.00">email_address :character varying</text>
<text text-anchor="start" x="3759" y="-479.3" font-family="Times,serif" font-size="14.00">password_digest :character varying</text>
<text text-anchor="start" x="3759" y="-464.3" font-family="Times,serif" font-size="14.00">created_at :timestamp(6) without time zone</text>
<text text-anchor="start" x="3759" y="-449.3" font-family="Times,serif" font-size="14.00">updated_at :timestamp(6) without time zone</text>
<text text-anchor="start" x="3759" y="-434.3" font-family="Times,serif" font-size="14.00">name :character varying</text>
<text text-anchor="start" x="3759" y="-419.3" font-family="Times,serif" font-size="14.00">phone :character varying</text>
<text text-anchor="start" x="3759" y="-404.3" font-family="Times,serif" font-size="14.00">company_id :bigint</text>
<text text-anchor="start" x="3759" y="-389.3" font-family="Times,serif" font-size="14.00">role_id :bigint</text>
</g>
<!-- Role&#45;&gt;User -->
<g id="edge13" class="edge">
<title>Role&#45;&gt;User</title>
<path fill="none" stroke="#9a09e1" d="M4065.33,-593.8C4051.1,-581.37 4035.78,-567.99 4020.6,-554.71"/>
<polygon fill="#9a09e1" stroke="#9a09e1" points="4065.36,-593.83 4069.93,-603.8 4069.12,-597.12 4072.89,-600.41 4072.89,-600.41 4072.89,-600.41 4069.12,-597.12 4075.85,-597.02 4065.36,-593.83 4065.36,-593.83"/>
<polygon fill="#9a09e1" stroke="#9a09e1" points="4020.2,-554.37 4015.63,-544.4 4016.44,-551.08 4012.67,-547.79 4012.67,-547.79 4012.67,-547.79 4016.44,-551.08 4009.71,-551.18 4020.2,-554.37 4020.2,-554.37"/>
</g>
<!-- UserRole -->
<g id="node16" class="node">
<title>UserRole</title>
<path fill="none" stroke="black" d="M3977,-162.5C3977,-162.5 4288,-162.5 4288,-162.5 4294,-162.5 4300,-168.5 4300,-174.5 4300,-174.5 4300,-256.5 4300,-256.5 4300,-262.5 4294,-268.5 4288,-268.5 4288,-268.5 3977,-268.5 3977,-268.5 3971,-268.5 3965,-262.5 3965,-256.5 3965,-256.5 3965,-174.5 3965,-174.5 3965,-168.5 3971,-162.5 3977,-162.5"/>
<text text-anchor="middle" x="4132.5" y="-253.3" font-family="Times,serif" font-size="14.00">UserRole</text>
<polyline fill="none" stroke="black" points="3965,-245.5 4300,-245.5 "/>
<text text-anchor="start" x="3973" y="-230.3" font-family="Times,serif" font-size="14.00">id :bigint</text>
<text text-anchor="start" x="3973" y="-215.3" font-family="Times,serif" font-size="14.00">user_id :bigint</text>
<text text-anchor="start" x="3973" y="-200.3" font-family="Times,serif" font-size="14.00">role_id :bigint</text>
<text text-anchor="start" x="3973" y="-185.3" font-family="Times,serif" font-size="14.00">created_at :timestamp(6) without time zone</text>
<text text-anchor="start" x="3973" y="-170.3" font-family="Times,serif" font-size="14.00">updated_at :timestamp(6) without time zone</text>
</g>
<!-- Role&#45;&gt;UserRole -->
<g id="edge12" class="edge">
<title>Role&#45;&gt;UserRole</title>
<path fill="none" stroke="#67141c" d="M4132.5,-590.16C4132.5,-507.26 4132.5,-361.6 4132.5,-278.75"/>
<polygon fill="#67141c" stroke="#67141c" points="4132.5,-590.34 4128,-600.34 4132.5,-595.34 4132.5,-600.34 4132.5,-600.34 4132.5,-600.34 4132.5,-595.34 4137,-600.34 4132.5,-590.34 4132.5,-590.34"/>
<polygon fill="#67141c" stroke="#67141c" points="4132.5,-278.72 4137,-268.72 4132.5,-273.72 4132.5,-268.72 4132.5,-268.72 4132.5,-268.72 4132.5,-273.72 4128,-268.72 4132.5,-278.72 4132.5,-278.72"/>
</g>
<!-- Session -->
<g id="node14" class="node">
<title>Session</title>
<path fill="none" stroke="black" d="M3624,-585.5C3624,-585.5 3935,-585.5 3935,-585.5 3941,-585.5 3947,-591.5 3947,-597.5 3947,-597.5 3947,-709.5 3947,-709.5 3947,-715.5 3941,-721.5 3935,-721.5 3935,-721.5 3624,-721.5 3624,-721.5 3618,-721.5 3612,-715.5 3612,-709.5 3612,-709.5 3612,-597.5 3612,-597.5 3612,-591.5 3618,-585.5 3624,-585.5"/>
<text text-anchor="middle" x="3779.5" y="-706.3" font-family="Times,serif" font-size="14.00">Session</text>
<polyline fill="none" stroke="black" points="3612,-698.5 3947,-698.5 "/>
<text text-anchor="start" x="3620" y="-683.3" font-family="Times,serif" font-size="14.00">id :bigint</text>
<text text-anchor="start" x="3620" y="-668.3" font-family="Times,serif" font-size="14.00">user_id :bigint</text>
<text text-anchor="start" x="3620" y="-653.3" font-family="Times,serif" font-size="14.00">ip_address :character varying</text>
<text text-anchor="start" x="3620" y="-638.3" font-family="Times,serif" font-size="14.00">user_agent :character varying</text>
<text text-anchor="start" x="3620" y="-623.3" font-family="Times,serif" font-size="14.00">token :character varying</text>
<text text-anchor="start" x="3620" y="-608.3" font-family="Times,serif" font-size="14.00">created_at :timestamp(6) without time zone</text>
<text text-anchor="start" x="3620" y="-593.3" font-family="Times,serif" font-size="14.00">updated_at :timestamp(6) without time zone</text>
</g>
<!-- Session&#45;&gt;User -->
<g id="edge14" class="edge">
<title>Session&#45;&gt;User</title>
<path fill="none" stroke="#c93c87" d="M3835.47,-577.2C3840.64,-570.25 3845.91,-563.15 3851.17,-556.08"/>
<polygon fill="#c93c87" stroke="#c93c87" points="3835.45,-577.23 3825.87,-582.57 3832.47,-581.24 3829.49,-585.25 3829.49,-585.25 3829.49,-585.25 3832.47,-581.24 3833.1,-587.94 3835.45,-577.23 3835.45,-577.23"/>
<polygon fill="#c93c87" stroke="#c93c87" points="3851.36,-555.83 3860.94,-550.48 3854.34,-551.81 3857.33,-547.8 3857.33,-547.8 3857.33,-547.8 3854.34,-551.81 3853.71,-545.11 3851.36,-555.83 3851.36,-555.83"/>
</g>
<!-- User&#45;&gt;UserRole -->
<g id="edge15" class="edge">
<title>User&#45;&gt;UserRole</title>
<path fill="none" stroke="#4cfa91" d="M3996.62,-373.33C4024.65,-340.98 4055.53,-305.34 4080.76,-276.21"/>
<polygon fill="#4cfa91" stroke="#4cfa91" points="3996.31,-373.69 3986.36,-378.31 3993.03,-377.47 3989.76,-381.25 3989.76,-381.25 3989.76,-381.25 3993.03,-377.47 3993.16,-384.2 3996.31,-373.69 3996.31,-373.69"/>
<polygon fill="#4cfa91" stroke="#4cfa91" points="4080.84,-276.13 4090.79,-271.52 4084.11,-272.35 4087.39,-268.57 4087.39,-268.57 4087.39,-268.57 4084.11,-272.35 4083.99,-265.62 4080.84,-276.13 4080.84,-276.13"/>
</g>
<!-- User&#45;&gt;Audited::Audit -->
<g id="edge16" class="edge">
<title>User&#45;&gt;Audited::Audit</title>
<path fill="none" stroke="#fc62e6" d="M3910.67,-371.45C3901.02,-263.18 3884.68,-96.82 3874.5,-87 3820.14,-34.57 2697.84,-22.09 2372.91,-19.57"/>
<polygon fill="#fc62e6" stroke="#fc62e6" points="3910.67,-371.45 3907.07,-381.81 3911.11,-376.43 3911.55,-381.41 3911.55,-381.41 3911.55,-381.41 3911.11,-376.43 3916.03,-381.01 3910.67,-371.45 3910.67,-371.45"/>
<polygon fill="#fc62e6" stroke="#fc62e6" points="2372.61,-19.57 2362.65,-14.99 2367.61,-19.53 2362.61,-19.49 2362.61,-19.49 2362.61,-19.49 2367.61,-19.53 2362.58,-23.99 2372.61,-19.57 2372.61,-19.57"/>
<text text-anchor="middle" x="3930" y="-211.8" font-family="Times,serif" font-size="14.00">audits</text>
</g>
<!-- UserRole&#45;&gt;Audited::Audit -->
<g id="edge17" class="edge">
<title>UserRole&#45;&gt;Audited::Audit</title>
<path fill="none" stroke="#aef001" d="M4073.94,-155.37C4033.31,-118.63 3975.82,-74.6 3915.5,-54 3842.18,-28.95 2701.46,-21.15 2373.22,-19.41"/>
<polygon fill="#aef001" stroke="#aef001" points="4073.96,-155.38 4078.29,-165.46 4077.64,-158.76 4081.33,-162.14 4081.33,-162.14 4081.33,-162.14 4077.64,-158.76 4084.37,-158.82 4073.96,-155.38 4073.96,-155.38"/>
<polygon fill="#aef001" stroke="#aef001" points="2372.82,-19.41 2362.85,-14.86 2367.82,-19.38 2362.82,-19.36 2362.82,-19.36 2362.82,-19.36 2367.82,-19.38 2362.8,-23.86 2372.82,-19.41 2372.82,-19.41"/>
<text text-anchor="middle" x="3971" y="-57.8" font-family="Times,serif" font-size="14.00">audits</text>
</g>
</g>
</svg>
